<svg width="80" height="80" viewBox="0 0 80 80" fill="none" xmlns="http://www.w3.org/2000/svg">
<path d="M49.5423 42.4666L57.6561 27.7522V49.8225H22.3438V27.7522L30.4575 42.4666C30.8111 43.1077 31.5045 43.4817 32.2358 43.4312C32.9659 43.378 33.5984 42.9045 33.8553 42.2188L40 25.8142L46.1445 42.2188C46.4014 42.9045 47.0339 43.378 47.7641 43.4312C48.4941 43.4823 49.1888 43.1075 49.5423 42.4666ZM22.3438 57.6562H57.6561V53.5723H22.3438V57.6562ZM80 40C80 62.0561 62.0561 80 40 80C17.9439 80 0 62.0561 0 40C0 17.9439 17.9439 0 40 0C62.0561 0 80 17.9439 80 40ZM61.4061 20.4688C61.4061 19.6133 60.827 18.8662 59.9986 18.653C59.1698 18.4397 58.3023 18.8142 57.8892 19.5634L48.2267 37.0864L41.7559 19.8111C41.4816 19.0789 40.7817 18.5938 40 18.5938C39.2183 18.5938 38.5184 19.0789 38.2441 19.8111L31.7733 37.0864L22.1108 19.5634C21.6977 18.8144 20.8295 18.4398 20.0014 18.653C19.1728 18.8662 18.5938 19.6133 18.5938 20.4688V59.5312C18.5938 60.5669 19.4333 61.4062 20.4688 61.4062H59.5311C60.5666 61.4062 61.4061 60.5669 61.4061 59.5312V20.4688Z" fill="url(#paint0_linear_46_166)"/>
<defs>
<linearGradient id="paint0_linear_46_166" x1="40" y1="0" x2="40" y2="80" gradientUnits="userSpaceOnUse">
<stop stop-color="#CCA509"/>
<stop offset="1" stop-color="#006633"/>
</linearGradient>
</defs>
</svg>
