<svg width="38" height="31" viewBox="0 0 38 31" fill="none" xmlns="http://www.w3.org/2000/svg">
<path d="M10.4744 25.1527C10.6727 25.1527 10.8598 25.0603 10.9804 24.9028C10.9977 24.8803 12.7268 22.6171 14.4316 19.9204C16.7654 16.2287 17.9487 13.5007 17.9487 11.8123C17.9487 7.6909 14.5957 4.33795 10.4744 4.33795C6.35302 4.33795 3 7.6909 3 11.8122C3 13.5007 4.18331 16.2287 6.5171 19.9203C8.22191 22.6171 9.95101 24.8802 9.96828 24.9028C10.089 25.0603 10.276 25.1527 10.4744 25.1527ZM4.27491 11.8122C4.27491 8.39389 7.056 5.6128 10.4744 5.6128C13.8927 5.6128 16.6738 8.39389 16.6738 11.8122C16.6738 14.4954 12.5836 20.5938 10.4743 23.4533C8.36483 20.5942 4.27491 14.4966 4.27491 11.8122Z" fill="#272525" stroke="#272525" stroke-width="0.3"/>
<path d="M14.9546 11.8123C14.9546 9.3416 12.9446 7.33151 10.4739 7.33151C8.00319 7.33151 5.99316 9.34154 5.99316 11.8123C5.99316 14.283 8.00319 16.293 10.4739 16.293C12.9446 16.293 14.9546 14.283 14.9546 11.8123ZM7.26814 11.8123C7.26814 10.0446 8.70624 8.60642 10.474 8.60642C12.2417 8.60642 13.6798 10.0445 13.6798 11.8123C13.6798 13.58 12.2417 15.0181 10.474 15.0181C8.70624 15.0181 7.26814 13.58 7.26814 11.8123Z" fill="#272525" stroke="#272525" stroke-width="0.3"/>
<path d="M27.5256 4.33789C23.4042 4.33789 20.0513 7.69091 20.0513 11.8122C20.0513 13.5007 21.2346 16.2287 23.5684 19.9203C25.2732 22.6171 27.0023 24.8802 27.0195 24.9028C27.1402 25.0603 27.3272 25.1526 27.5256 25.1526C27.724 25.1526 27.9111 25.0602 28.0317 24.9028C28.049 24.8802 29.7781 22.6171 31.4829 19.9203C33.8167 16.2287 35 13.5007 35 11.8122C35 7.69091 31.647 4.33789 27.5256 4.33789ZM27.5256 23.4534C25.4161 20.5942 21.3262 14.4966 21.3262 11.8122C21.3262 8.39389 24.1073 5.6128 27.5256 5.6128C30.944 5.6128 33.7251 8.39389 33.7251 11.8122C33.7251 14.4954 29.635 20.5939 27.5256 23.4534Z" fill="#272525" stroke="#272525" stroke-width="0.3"/>
<path d="M27.5261 7.33157C25.0554 7.33157 23.0454 9.3416 23.0454 11.8123C23.0454 14.283 25.0554 16.293 27.5261 16.293C29.9967 16.293 32.0068 14.283 32.0068 11.8123C32.0068 9.3416 29.9967 7.33157 27.5261 7.33157ZM27.5261 15.0181C25.7584 15.0181 24.3203 13.58 24.3203 11.8122C24.3203 10.0445 25.7584 8.60642 27.5261 8.60642C29.2937 8.60642 30.7319 10.0445 30.7319 11.8122C30.7319 13.58 29.2938 15.0181 27.5261 15.0181Z" fill="#272525" stroke="#272525" stroke-width="0.3"/>
<path d="M27.4877 26.2485C26.2926 26.2485 25.3203 27.2207 25.3203 28.4158C25.3203 29.6109 26.2926 30.5832 27.4877 30.5832C28.6828 30.5832 29.655 29.6109 29.655 28.4158C29.655 27.2207 28.6827 26.2485 27.4877 26.2485ZM27.4877 29.3083C26.9955 29.3083 26.5952 28.9079 26.5952 28.4158C26.5952 27.9237 26.9955 27.5234 27.4877 27.5234C27.9798 27.5234 28.3801 27.9237 28.3801 28.4158C28.3801 28.9079 27.9798 29.3083 27.4877 29.3083Z" fill="#272525" stroke="#272525" stroke-width="0.3"/>
<path d="M23.5993 27.7784H21.8782C21.5261 27.7784 21.2407 28.0638 21.2407 28.4159C21.2407 28.7679 21.5261 29.0533 21.8782 29.0533H23.5993C23.9514 29.0533 24.2368 28.7679 24.2368 28.4159C24.2368 28.0638 23.9514 27.7784 23.5993 27.7784Z" fill="#272525" stroke="#272525" stroke-width="0.3"/>
<path d="M19.6475 27.7784H12.5397C12.2668 26.8935 11.4414 26.2485 10.4681 26.2485C9.27303 26.2485 8.30078 27.2207 8.30078 28.4158C8.30078 29.6109 9.27303 30.5832 10.4681 30.5832C11.4414 30.5832 12.2668 29.9382 12.5397 29.0533H19.6475C19.9996 29.0533 20.2849 28.7679 20.2849 28.4158C20.2849 28.0638 19.9996 27.7784 19.6475 27.7784ZM10.4681 29.3083C9.97601 29.3083 9.57569 28.9079 9.57569 28.4158C9.57569 27.9237 9.97601 27.5234 10.4681 27.5234C10.9602 27.5234 11.3606 27.9237 11.3606 28.4158C11.3606 28.9079 10.9602 29.3083 10.4681 29.3083Z" fill="#272525" stroke="#272525" stroke-width="0.3"/>
</svg>
