<svg width="83" height="83" viewBox="0 0 83 83" fill="none" xmlns="http://www.w3.org/2000/svg">
<g clip-path="url(#clip0_12_147)">
<path d="M14.3677 25.9154C15.6595 29.5507 15.7649 33.6067 14.4278 37.2273C12.1595 43.3565 6.49595 47.6827 3.86706 53.6617C0.817424 60.6171 2.56024 69.2549 7.69773 74.8581C12.8203 80.4615 20.9173 82.985 28.4284 81.8434C22.2693 74.4975 20.2114 63.9217 23.1707 54.8034C24.3724 51.1079 26.3553 47.4275 25.8447 43.5818C29.1948 48.4342 31.3129 54.1274 31.9587 59.986C34.6477 55.9151 39.2594 53.6468 43.3005 50.8976C47.3266 48.1484 51.2323 44.0774 50.9768 39.1952C53.816 44.9336 54.507 51.6936 52.8546 57.8829C52.4491 59.3851 51.908 60.9023 51.9233 62.4497C51.9383 64.0121 52.6445 65.6945 54.0866 66.3103C55.5436 66.9412 57.3313 66.2352 58.3227 64.9883C59.3141 63.7413 59.6448 62.0889 59.6897 60.4966C63.7607 62.6449 65.0076 68.248 63.4904 72.6044C61.9733 76.9609 58.3978 80.2508 54.7024 82.9847C65.1578 82.2938 74.9223 75.1582 78.768 65.4087C82.6136 55.6592 80.3453 43.7916 73.1798 36.1452C71.7979 41.2827 68.5379 45.8798 64.1664 48.9142C66.465 44.3324 68.1773 39.3601 68.2676 34.2375C68.358 29.115 66.6903 23.812 63.0248 20.2369C61.2673 18.5243 59.0738 17.1873 57.782 15.1144C56.4901 13.0262 56.5952 9.7363 58.8036 8.68474C54.8829 9.03037 50.8418 9.94667 47.8224 12.4702C44.803 14.9938 43.1505 19.4855 44.8631 23.031C43.3157 22.4002 42.5497 20.5975 42.4745 18.9148C42.3994 17.2474 42.8651 15.595 43.0003 13.9276C43.346 9.63126 41.1677 5.39481 37.8476 2.75095C36.9313 2.02977 33.1607 -0.629053 31.9138 0.137023C30.8622 0.76784 32.635 1.68443 33.0704 2.15006C33.8966 3.02147 34.5876 4.05777 34.5876 5.30474C34.5576 8.3843 30.7719 9.72134 28.6538 11.9597C26.881 13.8375 26.2652 16.5714 26.4304 19.1405C26.5956 21.7092 27.467 24.1879 28.3381 26.6064C24.5825 19.8763 16.08 16.1959 8.59878 18.0587C11.2729 19.9966 13.256 22.806 14.3677 25.9154Z" fill="#E35A4D"/>
<path d="M38.6133 65.8597C38.1477 64.0271 38.7184 62.029 39.755 60.4217C40.8365 58.7543 42.3839 57.4023 43.9313 56.1856C44.8027 55.4946 47.9421 53.782 48.0774 52.6102C47.8371 54.7133 46.8756 56.6961 45.6439 58.4087C44.3969 60.1213 42.8797 61.6235 41.3625 63.0955C40.3562 64.072 39.3345 65.0783 38.7788 66.3552C38.7037 66.19 38.6585 66.0249 38.6133 65.8597Z" fill="#E35A4D"/>
<path d="M14.608 70.0809C13.256 64.1471 14.0071 57.8377 16.2305 52.1745C18.0182 47.6076 20.7521 43.3565 21.5933 38.5192C23.1255 29.6261 17.958 20.763 9.21492 18.2993C9.0647 18.2541 8.89951 18.2092 8.74929 18.179C11.3632 20.1169 13.2859 22.8658 14.3826 25.9154C15.6745 29.5507 15.7798 33.6067 14.4428 37.2273C12.1745 43.3565 6.51091 47.6827 3.88202 53.6617C0.832385 60.6171 2.5752 69.2549 7.71269 74.8581C11.1528 78.6286 15.945 81.0022 20.9924 81.8135C17.8228 78.6436 15.5994 74.4825 14.608 70.0809Z" fill="#BD4A3E"/>
<path d="M44.8928 30.0166C45.4787 27.8836 46.2747 25.51 45.2231 23.572C45.1029 23.3467 44.9526 23.1363 44.8024 22.926C44.8174 22.9559 44.8323 23.0011 44.8476 23.031C43.3002 22.4002 42.5341 20.5975 42.459 18.9148C42.3839 17.2474 42.8495 15.595 42.9848 13.9276C43.3304 9.63126 41.1522 5.39481 37.832 2.75095C36.9157 2.02977 33.1452 -0.629053 31.8982 0.137023C31.8381 0.182207 31.7779 0.212134 31.733 0.257318C35.5036 1.72962 38.0876 5.81555 37.8021 9.8566C37.6519 12.0498 36.7505 14.108 36.3148 16.256C35.5338 20.0867 36.2849 24.1577 38.0876 27.6277C39.8903 31.0978 42.7146 33.9823 45.9892 36.1303C44.1716 34.8686 44.3069 32.1497 44.8928 30.0166Z" fill="#BD4A3E"/>
<path d="M73.0143 36.7015C73.1795 37.6929 73.2247 38.6996 73.2546 39.706C73.3899 44.423 73.3148 49.155 73.0143 53.8721C72.7438 58.1235 72.2931 62.3896 71.0162 66.4456C69.7393 70.5016 67.591 74.3775 64.3765 77.1566C61.5974 79.5601 58.1572 81.0324 54.9424 82.8351C54.8673 82.8953 54.7922 82.9554 54.7171 83.0003C65.1725 82.3093 74.937 75.1738 78.7826 65.4243C82.6283 55.6748 80.36 43.8072 73.1945 36.1608C73.1196 36.3409 73.0745 36.5211 73.0143 36.7015Z" fill="#BD4A3E"/>
<path d="M60.1254 25.7503C61.7177 28.0036 63.2199 30.4371 63.6257 33.1713C63.9561 35.3645 63.5655 37.5879 63.175 39.7661C62.3189 44.5281 61.4475 49.3352 59.4646 53.7368C60.8918 51.7388 62.7546 50.1165 64.4519 48.3587C66.6002 43.9421 68.1775 39.1652 68.2676 34.2528C68.3577 29.1303 66.6903 23.8273 63.0248 20.2522C61.2673 18.5396 59.0738 17.2025 57.782 15.1296C56.4901 13.0415 56.5952 9.75155 58.8036 8.7C58.6534 8.71496 58.5032 8.72992 58.3529 8.74518C57.6168 9.12074 56.8959 9.76681 56.2349 10.7582C54.7027 13.0567 54.8227 16.1363 55.8141 18.72C56.8055 21.2735 58.5331 23.482 60.1254 25.7503Z" fill="#BD4A3E"/>
<path d="M29.3148 30.6023C29.5701 33.8171 29.0443 37.0768 27.8126 40.0663C28.8791 39.15 29.9759 38.2184 30.7419 37.0469C32.2442 34.7484 31.8536 31.8941 29.2999 30.5723C29.3148 30.5723 29.3148 30.5873 29.3148 30.6023Z" fill="#BD4A3E"/>
</g>
<defs>
<clipPath id="clip0_12_147">
<rect width="83" height="83" fill="white"/>
</clipPath>
</defs>
</svg>
