<svg width="40" height="41" viewBox="0 0 40 41" fill="none" xmlns="http://www.w3.org/2000/svg">
<path d="M20 40.2402C31.0457 40.2402 40 31.2322 40 20.1201C40 9.00808 31.0457 0 20 0C8.9543 0 0 9.00808 0 20.1201C0 31.2322 8.9543 40.2402 20 40.2402Z" fill="#006633"/>
<path d="M31.7851 20.6203H29.3124C28.2045 20.6903 27.3212 21.5787 27.2518 22.6932V23.2696L24.3312 22.5441L25.2585 19.7414L32.0214 18.5391C32.1436 18.5198 32.25 18.4449 32.31 18.336C32.3713 18.227 32.3804 18.096 32.3347 17.9794L30.6862 13.8334C30.6236 13.6757 30.4718 13.572 30.303 13.5722L23.0084 14.191L17.006 14.2167L9.69708 13.5722C9.52822 13.5721 9.37637 13.6757 9.31381 13.8334L7.66535 17.9794C7.61962 18.096 7.62863 18.227 7.69 18.336C7.75007 18.4448 7.85649 18.5198 7.97862 18.5391L14.7415 19.7414L15.6688 22.5441L12.7396 23.2696V22.6932C12.6702 21.5787 11.7869 20.6902 10.679 20.6203H8.20635C7.09846 20.6903 6.21517 21.5787 6.14578 22.6932V30.9851C6.21517 32.0999 7.09846 32.9883 8.20635 33.0581H10.679C11.7869 32.9883 12.6702 32.0998 12.7396 30.9851V27.0797L16.7031 25.6618L17.1358 26.9719C17.194 27.1397 17.3506 27.2527 17.5274 27.2538H22.4728C22.6495 27.2527 22.8062 27.1397 22.8643 26.9719L23.297 25.6618L27.2519 27.0797V30.9851C27.3213 32.0999 28.2046 32.9883 29.3125 33.0581H31.7852C32.8931 32.9883 33.7764 32.0998 33.8457 30.9851V22.6932C33.7764 21.5787 32.8931 20.6902 31.7852 20.6203H31.7851ZM7.38187 22.2786H9.03033C9.25794 22.2786 9.44244 22.4644 9.44244 22.6932C9.44244 22.9222 9.25794 23.1078 9.03033 23.1078H7.38187C7.15426 23.1078 6.96976 22.9222 6.96976 22.6932C6.96976 22.4644 7.15426 22.2786 7.38187 22.2786ZM7.38187 25.5954H9.03033C9.25794 25.5954 9.44244 25.7811 9.44244 26.01C9.44244 26.239 9.25794 26.4246 9.03033 26.4246H7.38187C7.15426 26.4246 6.96976 26.239 6.96976 26.01C6.96976 25.7811 7.15426 25.5954 7.38187 25.5954ZM9.03033 29.7414H7.38187C7.15426 29.7414 6.96976 29.5557 6.96976 29.3268C6.96976 29.0979 7.15426 28.9122 7.38187 28.9122H9.03033C9.25794 28.9122 9.44244 29.0979 9.44244 29.3268C9.44244 29.5557 9.25794 29.7414 9.03033 29.7414ZM11.503 31.3997H9.85456C9.62695 31.3997 9.44244 31.2141 9.44244 30.9851C9.44244 30.7563 9.62695 30.5705 9.85456 30.5705H11.503C11.7306 30.5705 11.9151 30.7563 11.9151 30.9851C11.9151 31.2141 11.7306 31.3997 11.503 31.3997ZM11.503 28.083H9.85456C9.62695 28.083 9.44244 27.8974 9.44244 27.6684C9.44244 27.4396 9.62695 27.2538 9.85456 27.2538H11.503C11.7306 27.2538 11.9151 27.4396 11.9151 27.6684C11.9151 27.8974 11.7306 28.083 11.503 28.083ZM11.503 24.7662H9.85456C9.62695 24.7662 9.44244 24.5806 9.44244 24.3516C9.44244 24.1228 9.62695 23.9371 9.85456 23.9371H11.503C11.7306 23.9371 11.9151 24.1228 11.9151 24.3516C11.9151 24.5806 11.7306 24.7662 11.503 24.7662ZM23.4071 15.9668C23.4071 15.7379 23.5916 15.5522 23.8192 15.5522L29.0665 15.2306C29.2432 15.2319 29.3999 15.3447 29.458 15.5127L29.8701 16.7564C29.9078 16.8724 29.8943 16.999 29.833 17.1046C29.7694 17.2084 29.6641 17.2795 29.5447 17.2994L24.5992 18.1286C24.5773 18.1322 24.5555 18.1333 24.5332 18.1326C24.3056 18.1326 24.1211 17.947 24.1211 17.718L23.4071 15.9666V15.9668ZM15.4666 18.1327C15.4444 18.1334 15.4225 18.1322 15.4006 18.1287L10.4552 17.2995C10.3357 17.2797 10.2304 17.2085 10.1669 17.1047C10.1056 16.9991 10.092 16.8725 10.1297 16.7566L10.5418 15.5128C10.6 15.3449 10.7566 15.2319 10.9334 15.2307L16.2449 15.7004C16.4725 15.7004 16.657 15.8861 16.657 16.115L15.8788 17.7182C15.8788 17.9472 15.6943 18.1328 15.4667 18.1328L15.4666 18.1327ZM12.7394 26.1221V24.1942L15.9322 23.3359L16.4351 24.8576L12.7394 26.1222L12.7394 26.1221ZM21.6484 23.9371H18.3515C18.1239 23.9371 17.9394 23.7514 17.9394 23.5225C17.9394 23.2936 18.1239 23.1079 18.3515 23.1079H21.6484C21.876 23.1079 22.0605 23.2936 22.0605 23.5225C22.0605 23.7514 21.876 23.9371 21.6484 23.9371ZM22.0605 21.8641H17.9393C17.7117 21.8641 17.5272 21.6785 17.5272 21.4495C17.5272 21.2207 17.7117 21.0349 17.9393 21.0349H22.0605C22.2881 21.0349 22.4726 21.2207 22.4726 21.4495C22.4726 21.6785 22.2881 21.8641 22.0605 21.8641ZM22.8847 19.7912H17.1151C16.8875 19.7912 16.703 19.6056 16.703 19.3766C16.703 19.1477 16.8875 18.962 17.1151 18.962H22.8847C23.1123 18.962 23.2968 19.1477 23.2968 19.3766C23.2968 19.6056 23.1123 19.7912 22.8847 19.7912ZM27.2517 26.1222L23.5647 24.8576L24.0676 23.3359L27.2517 24.1942V26.1221V26.1222ZM28.4881 23.9371H30.1365C30.3641 23.9371 30.5487 24.1229 30.5487 24.3517C30.5487 24.5807 30.3641 24.7663 30.1365 24.7663H28.4881C28.2605 24.7663 28.076 24.5807 28.076 24.3517C28.076 24.1229 28.2605 23.9371 28.4881 23.9371ZM28.4881 27.2539H30.1365C30.3641 27.2539 30.5487 27.4396 30.5487 27.6685C30.5487 27.8975 30.3641 28.0831 30.1365 28.0831H28.4881C28.2605 28.0831 28.076 27.8975 28.076 27.6685C28.076 27.4396 28.2605 27.2539 28.4881 27.2539ZM30.1365 31.3998H28.4881C28.2605 31.3998 28.076 31.2142 28.076 30.9853C28.076 30.7564 28.2605 30.5707 28.4881 30.5707H30.1365C30.3641 30.5707 30.5487 30.7564 30.5487 30.9853C30.5487 31.2142 30.3641 31.3998 30.1365 31.3998ZM32.6092 29.7415H30.9608C30.7332 29.7415 30.5487 29.5559 30.5487 29.3269C30.5487 29.098 30.7332 28.9123 30.9608 28.9123H32.6092C32.8368 28.9123 33.0213 29.098 33.0213 29.3269C33.0213 29.5559 32.8368 29.7415 32.6092 29.7415ZM32.6092 26.4247H30.9608C30.7332 26.4247 30.5487 26.2391 30.5487 26.0101C30.5487 25.7813 30.7332 25.5955 30.9608 25.5955H32.6092C32.8368 25.5955 33.0213 25.7813 33.0213 26.0101C33.0213 26.2391 32.8368 26.4247 32.6092 26.4247ZM32.6092 23.108H30.9608C30.7332 23.108 30.5487 22.9224 30.5487 22.6934C30.5487 22.4646 30.7332 22.2788 30.9608 22.2788H32.6092C32.8368 22.2788 33.0213 22.4646 33.0213 22.6934C33.0213 22.9224 32.8368 23.108 32.6092 23.108Z" fill="#FEFEFE"/>
<path fill-rule="evenodd" clip-rule="evenodd" d="M11.1086 13.136L13.9207 7.16714C13.9979 7.00325 14.201 6.8819 14.3813 6.8819H25.529C25.7925 6.8819 25.9942 7.02893 26.0878 7.22775L28.8714 13.136L27.4178 13.2749L25.1706 8.52093C25.0623 8.29183 24.8851 8.17067 24.6069 8.22146L23.1221 8.49261H16.8466L15.2993 8.22077C15.053 8.17746 14.8746 8.34854 14.79 8.52848L12.5658 13.258L11.1086 13.1361L11.1086 13.136Z" fill="#FEFEFE"/>
<path fill-rule="evenodd" clip-rule="evenodd" d="M19.6382 13.1361C19.5916 12.6287 19.3695 12.1876 19.0552 11.9116C18.8748 11.7533 18.5617 11.5211 18.4895 11.3167L18.1366 10.3184C17.9162 9.69481 17.5359 9.66724 17.2627 9.66724H16.8467V13.5975L14.0552 13.3746C14.0552 12.7925 14.3239 12.1876 14.6382 11.9116C14.8186 11.7532 15.1316 11.521 15.2039 11.3166L15.5568 10.3183C15.7772 9.69474 16.1575 9.66718 16.4307 9.66718H16.8467V13.5974L19.6783 13.5721L19.6382 13.136L19.6382 13.1361ZM15.6537 12.1256C15.715 12.1501 16.3476 12.2729 16.4203 12.079L16.6555 11.4517C16.7206 11.278 16.5799 11.1497 16.4563 11.1497H16.1831C16.0949 11.1497 15.9815 11.2304 15.9418 11.292L15.7092 11.6523C15.5778 11.8558 15.3556 12.0064 15.6537 12.1256H15.6537ZM18.0814 12.1256C18.0201 12.1501 17.3874 12.2729 17.3147 12.079L17.0795 11.4517C17.0144 11.278 17.1551 11.1497 17.2787 11.1497H17.5519C17.6402 11.1497 17.7535 11.2304 17.7933 11.292L18.0258 11.6523C18.1572 11.8558 18.3795 12.0064 18.0813 12.1256H18.0814Z" fill="#FEFEFE"/>
<path fill-rule="evenodd" clip-rule="evenodd" d="M20.3418 13.1361C20.3884 12.6287 20.6105 12.1876 20.9248 11.9116C21.1052 11.7533 21.4183 11.5211 21.4905 11.3167L21.8434 10.3184C22.0638 9.69481 22.4441 9.66724 22.7173 9.66724H23.1333V13.5975L25.9248 13.3746C25.9248 12.7925 25.6561 12.1876 25.3418 11.9116C25.1614 11.7532 24.8484 11.521 24.7761 11.3166L24.4232 10.3183C24.2028 9.69474 23.8225 9.66718 23.5493 9.66718H23.1333V13.5974L20.3017 13.5721L20.3418 13.136L20.3418 13.1361ZM24.3263 12.1256C24.265 12.1501 23.6324 12.2729 23.5597 12.079L23.3245 11.4517C23.2593 11.278 23.4001 11.1497 23.5237 11.1497H23.7969C23.8851 11.1497 23.9985 11.2304 24.0382 11.292L24.2708 11.6523C24.4022 11.8558 24.6244 12.0064 24.3263 12.1256H24.3263ZM21.8986 12.1256C21.9599 12.1501 22.5926 12.2729 22.6653 12.079L22.9005 11.4517C22.9656 11.278 22.8249 11.1497 22.7013 11.1497H22.4281C22.3398 11.1497 22.2265 11.2304 22.1867 11.292L21.9542 11.6523C21.8228 11.8558 21.6005 12.0064 21.8987 12.1256H21.8986Z" fill="#FEFEFE"/>
<path d="M19.9999 2.01044C24.9709 2.01044 29.4713 4.0375 32.729 7.31468C35.9866 10.5919 38.0016 15.1194 38.0016 20.1202C38.0016 23.542 37.058 26.7421 35.4186 29.4718V27.8486C36.5731 25.5219 37.2228 22.8974 37.2228 20.1202C37.2228 15.3356 35.295 11.0041 32.1783 7.86868C29.0617 4.7333 24.7559 2.79398 20 2.79398C15.244 2.79398 10.9383 4.7333 7.82165 7.86868C4.70499 11.0041 2.77725 15.3357 2.77725 20.1202C2.77725 22.9648 3.45877 25.6493 4.66633 28.0175V29.6115C2.9747 26.8515 1.99844 23.6006 1.99844 20.1202C1.99844 15.1194 4.0134 10.5919 7.27102 7.31468C10.5287 4.0375 15.0291 2.01044 20.0001 2.01044H19.9999ZM31.0784 34.395C28.0237 36.7977 24.1781 38.2298 19.9999 38.2298C15.8219 38.2298 11.9763 36.7977 8.92154 34.395H10.2364C13.0112 36.3194 16.3748 37.4464 20 37.4464C23.6252 37.4464 26.9888 36.3194 29.7636 34.395H31.0785H31.0784Z" fill="#FEFEFE"/>
</svg>
