<svg width="180" height="46" viewBox="0 0 180 46" fill="none" xmlns="http://www.w3.org/2000/svg">
<path d="M35.8295 23.2436H33.0422C31.7934 23.3225 30.7977 24.324 30.7195 25.5803V26.2301L27.4273 25.4122L28.4726 22.2529L36.096 20.8976C36.2337 20.8759 36.3537 20.7914 36.4213 20.6687C36.4904 20.5458 36.5006 20.3982 36.4491 20.2667L34.5909 15.5933C34.5203 15.4155 34.3492 15.2986 34.1589 15.2988L25.9362 15.9964L19.1701 16.0253L10.9313 15.2988C10.7409 15.2987 10.5698 15.4155 10.4993 15.5933L8.64107 20.2667C8.58951 20.3982 8.59967 20.5458 8.66886 20.6687C8.73656 20.7914 8.85652 20.8759 8.99419 20.8976L16.6176 22.2529L17.6628 25.4122L14.3609 26.2301V25.5803C14.2827 24.324 13.287 23.3225 12.0382 23.2436H9.2509C8.00204 23.3225 7.00637 24.324 6.92816 25.5803V34.9272C7.00637 36.1838 8.00204 37.1852 9.2509 37.2639H12.0382C13.287 37.1852 14.2827 36.1837 14.3609 34.9272V30.5248L18.8287 28.9266L19.3165 30.4033C19.382 30.5925 19.5585 30.7199 19.7578 30.7212H25.3325C25.5317 30.7199 25.7083 30.5925 25.7738 30.4033L26.2616 28.9266L30.7196 30.5248V34.9272C30.7978 36.1838 31.7935 37.1852 33.0424 37.2639H35.8297C37.0785 37.1852 38.0742 36.1837 38.1524 34.9272V25.5803C38.0742 24.324 37.0785 23.3225 35.8297 23.2436H35.8295ZM8.32152 25.113H10.1797C10.4363 25.113 10.6443 25.3223 10.6443 25.5803C10.6443 25.8384 10.4363 26.0477 10.1797 26.0477H8.32152C8.06495 26.0477 7.85697 25.8384 7.85697 25.5803C7.85697 25.3223 8.06495 25.113 8.32152 25.113ZM8.32152 28.8517H10.1797C10.4363 28.8517 10.6443 29.0611 10.6443 29.3191C10.6443 29.5772 10.4363 29.7864 10.1797 29.7864H8.32152C8.06495 29.7864 7.85697 29.5772 7.85697 29.3191C7.85697 29.0611 8.06495 28.8517 8.32152 28.8517ZM10.1797 33.5252H8.32152C8.06495 33.5252 7.85697 33.316 7.85697 33.0578C7.85697 32.7999 8.06495 32.5905 8.32152 32.5905H10.1797C10.4363 32.5905 10.6443 32.7999 10.6443 33.0578C10.6443 33.316 10.4363 33.5252 10.1797 33.5252ZM12.967 35.3945H11.1088C10.8522 35.3945 10.6443 35.1853 10.6443 34.9272C10.6443 34.6692 10.8522 34.4599 11.1088 34.4599H12.967C13.2236 34.4599 13.4315 34.6692 13.4315 34.9272C13.4315 35.1853 13.2236 35.3945 12.967 35.3945ZM12.967 31.6558H11.1088C10.8522 31.6558 10.6443 31.4466 10.6443 31.1885C10.6443 30.9305 10.8522 30.7212 11.1088 30.7212H12.967C13.2236 30.7212 13.4315 30.9305 13.4315 31.1885C13.4315 31.4466 13.2236 31.6558 12.967 31.6558ZM12.967 27.9171H11.1088C10.8522 27.9171 10.6443 27.7078 10.6443 27.4497C10.6443 27.1918 10.8522 26.9824 11.1088 26.9824H12.967C13.2236 26.9824 13.4315 27.1918 13.4315 27.4497C13.4315 27.7078 13.2236 27.9171 12.967 27.9171ZM26.3856 17.9981C26.3856 17.7401 26.5936 17.5307 26.8502 17.5307L32.7651 17.1682C32.9643 17.1697 33.1409 17.2969 33.2064 17.4862L33.671 18.8882C33.7134 19.0189 33.6982 19.1616 33.6291 19.2807C33.5574 19.3977 33.4387 19.4778 33.3041 19.5002L27.7295 20.4349C27.7048 20.439 27.6801 20.4402 27.6551 20.4395C27.3985 20.4395 27.1905 20.2302 27.1905 19.9721L26.3856 17.9979V17.9981ZM17.4349 20.4396C17.4098 20.4403 17.3852 20.439 17.3605 20.4351L11.7858 19.5004C11.6512 19.478 11.5325 19.3978 11.4609 19.2808C11.3917 19.1618 11.3764 19.019 11.419 18.8883L11.8835 17.4863C11.949 17.297 12.1256 17.1697 12.3249 17.1683L18.3122 17.6978C18.5688 17.6978 18.7768 17.9072 18.7768 18.1651L17.8995 19.9723C17.8995 20.2305 17.6915 20.4397 17.4349 20.4397L17.4349 20.4396ZM14.3607 29.4454V27.2723L17.9597 26.3048L18.5265 28.0201L14.3606 29.4455L14.3607 29.4454ZM24.4032 26.9824H20.6868C20.4302 26.9824 20.2222 26.7732 20.2222 26.5151C20.2222 26.2571 20.4302 26.0477 20.6868 26.0477H24.4032C24.6597 26.0477 24.8677 26.2571 24.8677 26.5151C24.8677 26.7732 24.6597 26.9824 24.4032 26.9824ZM24.8677 24.6457H20.2222C19.9656 24.6457 19.7576 24.4365 19.7576 24.1784C19.7576 23.9204 19.9656 23.711 20.2222 23.711H24.8677C25.1243 23.711 25.3322 23.9204 25.3322 24.1784C25.3322 24.4365 25.1243 24.6457 24.8677 24.6457ZM25.7968 22.309H19.2931C19.0365 22.309 18.8285 22.0998 18.8285 21.8417C18.8285 21.5837 19.0365 21.3744 19.2931 21.3744H25.7968C26.0534 21.3744 26.2613 21.5837 26.2613 21.8417C26.2613 22.0998 26.0534 22.309 25.7968 22.309ZM30.7194 29.4455L26.5633 28.0201L27.1302 26.3048L30.7194 27.2723V29.4454V29.4455ZM32.1131 26.9825H33.9713C34.2278 26.9825 34.4358 27.1918 34.4358 27.4498C34.4358 27.7079 34.2278 27.9171 33.9713 27.9171H32.1131C31.8565 27.9171 31.6485 27.7079 31.6485 27.4498C31.6485 27.1918 31.8565 26.9825 32.1131 26.9825ZM32.1131 30.7212H33.9713C34.2278 30.7212 34.4358 30.9306 34.4358 31.1886C34.4358 31.4467 34.2278 31.6559 33.9713 31.6559H32.1131C31.8565 31.6559 31.6485 31.4467 31.6485 31.1886C31.6485 30.9306 31.8565 30.7212 32.1131 30.7212ZM33.9713 35.3947H32.1131C31.8565 35.3947 31.6485 35.1854 31.6485 34.9273C31.6485 34.6694 31.8565 34.46 32.1131 34.46H33.9713C34.2278 34.46 34.4358 34.6694 34.4358 34.9273C34.4358 35.1854 34.2278 35.3947 33.9713 35.3947ZM36.7585 33.5253H34.9003C34.6438 33.5253 34.4358 33.3161 34.4358 33.058C34.4358 32.8 34.6438 32.5907 34.9003 32.5907H36.7585C37.0151 32.5907 37.2231 32.8 37.2231 33.058C37.2231 33.3161 37.0151 33.5253 36.7585 33.5253ZM36.7585 29.7866H34.9003C34.6438 29.7866 34.4358 29.5773 34.4358 29.3192C34.4358 29.0613 34.6438 28.8519 34.9003 28.8519H36.7585C37.0151 28.8519 37.2231 29.0613 37.2231 29.3192C37.2231 29.5773 37.0151 29.7866 36.7585 29.7866ZM36.7585 26.0479H34.9003C34.6438 26.0479 34.4358 25.8386 34.4358 25.5805C34.4358 25.3226 34.6438 25.1132 34.9003 25.1132H36.7585C37.0151 25.1132 37.2231 25.3226 37.2231 25.5805C37.2231 25.8386 37.0151 26.0479 36.7585 26.0479Z" fill="#FEFEFE"/>
<path fill-rule="evenodd" clip-rule="evenodd" d="M12.5224 14.8077L15.6923 8.07935C15.7793 7.8946 16.0083 7.75781 16.2116 7.75781H28.7775C29.0745 7.75781 29.3019 7.92355 29.4075 8.14767L32.5452 14.8077L30.9067 14.9643L28.3735 9.60538C28.2514 9.34713 28.0518 9.21055 27.7381 9.26781L26.0644 9.57345H18.9905L17.2463 9.26703C16.9686 9.21821 16.7676 9.41105 16.6722 9.61389L14.1651 14.9452L12.5225 14.8077L12.5224 14.8077Z" fill="#FEFEFE"/>
<path fill-rule="evenodd" clip-rule="evenodd" d="M22.1372 14.8077C22.0847 14.2358 21.8344 13.7385 21.48 13.4275C21.2767 13.249 20.9238 12.9872 20.8423 12.7568L20.4446 11.6315C20.1961 10.9286 19.7674 10.8975 19.4595 10.8975H18.9906V15.3278L15.8439 15.0765C15.8439 14.4205 16.1467 13.7385 16.5011 13.4274C16.7044 13.2489 17.0573 12.9872 17.1387 12.7567L17.5365 11.6314C17.785 10.9285 18.2137 10.8975 18.5216 10.8975H18.9905V15.3278L22.1824 15.2992L22.1373 14.8076L22.1372 14.8077ZM17.6457 13.6687C17.7149 13.6963 18.428 13.8347 18.51 13.6161L18.7751 12.909C18.8485 12.7132 18.6899 12.5686 18.5505 12.5686H18.2425C18.1431 12.5686 18.0153 12.6596 17.9705 12.729L17.7084 13.1351C17.5603 13.3645 17.3097 13.5343 17.6458 13.6687H17.6457ZM20.3823 13.6687C20.3132 13.6963 19.6001 13.8347 19.5181 13.6161L19.253 12.909C19.1796 12.7132 19.3382 12.5686 19.4776 12.5686H19.7855C19.885 12.5686 20.0128 12.6596 20.0575 12.729L20.3197 13.1351C20.4678 13.3645 20.7184 13.5343 20.3822 13.6687H20.3823Z" fill="#FEFEFE"/>
<path fill-rule="evenodd" clip-rule="evenodd" d="M22.9304 14.8077C22.9828 14.2358 23.2332 13.7385 23.5875 13.4275C23.7908 13.249 24.1437 12.9872 24.2252 12.7568L24.623 11.6315C24.8714 10.9286 25.3001 10.8975 25.6081 10.8975H26.077V15.3278L29.2237 15.0765C29.2237 14.4205 28.9208 13.7385 28.5665 13.4274C28.3632 13.2489 28.0103 12.9872 27.9288 12.7567L27.5311 11.6314C27.2826 10.9285 26.8539 10.8975 26.546 10.8975H26.077V15.3278L22.8852 15.2992L22.9303 14.8076L22.9304 14.8077ZM27.4218 13.6687C27.3527 13.6963 26.6396 13.8347 26.5576 13.6161L26.2925 12.909C26.2191 12.7132 26.3777 12.5686 26.517 12.5686H26.825C26.9245 12.5686 27.0523 12.6596 27.097 12.729L27.3592 13.1351C27.5073 13.3645 27.7579 13.5343 27.4217 13.6687H27.4218ZM24.6852 13.6687C24.7544 13.6963 25.4675 13.8347 25.5494 13.6161L25.8146 12.909C25.888 12.7132 25.7294 12.5686 25.59 12.5686H25.282C25.1826 12.5686 25.0548 12.6596 25.01 12.729L24.7479 13.1351C24.5998 13.3645 24.3492 13.5343 24.6853 13.6687H24.6852Z" fill="#FEFEFE"/>
<path d="M22.545 2.2666C28.1484 2.2666 33.2214 4.55157 36.8935 8.24571C40.5656 11.9399 42.8369 17.0434 42.8369 22.6804C42.8369 26.5376 41.7733 30.1449 39.9253 33.2219V31.3921C41.2267 28.7694 41.959 25.811 41.959 22.6804C41.959 17.2872 39.786 12.4045 36.2728 8.87019C32.7596 5.3359 27.906 3.14984 22.545 3.14984C17.184 3.14984 12.3304 5.3359 8.81724 8.87019C5.30405 12.4045 3.13104 17.2872 3.13104 22.6804C3.13104 25.887 3.89926 28.913 5.26046 31.5825V33.3793C3.35361 30.2682 2.25314 26.6037 2.25314 22.6804C2.25314 17.0434 4.52447 11.9399 8.19655 8.24571C11.8687 4.55157 16.9417 2.2666 22.5451 2.2666H22.545ZM35.0329 38.7715C31.5896 41.4798 27.2547 43.0942 22.545 43.0942C17.8353 43.0942 13.5004 41.4798 10.0571 38.7715H11.5392C14.6671 40.9407 18.4585 42.211 22.545 42.211C26.6315 42.211 30.423 40.9407 33.5509 38.7715H35.033H35.0329Z" fill="#FEFEFE"/>
<path d="M54.2183 14.2172H55.4119C55.4246 14.8836 55.6447 15.4137 56.0722 15.8097C56.5018 16.2036 57.0732 16.4016 57.7884 16.4016C58.4952 16.4016 59.054 16.2526 59.4603 15.9523C59.8688 15.6521 60.0719 15.2433 60.0719 14.7282C60.0719 14.0256 59.3058 13.4891 57.7757 13.1229C57.6847 13.1016 57.6149 13.0867 57.5662 13.0739C56.326 12.778 55.507 12.448 55.1091 12.0861C54.7091 11.722 54.5102 11.2047 54.5102 10.5361C54.5102 9.71646 54.8086 9.05855 55.4033 8.56255C55.998 8.06648 56.7895 7.81738 57.7778 7.81738C58.7852 7.81738 59.5788 8.07712 60.1565 8.59874C60.7364 9.11822 61.0284 9.83359 61.0369 10.7427L59.856 10.749C59.8137 10.138 59.6063 9.6675 59.2317 9.34178C58.8571 9.01606 58.345 8.85209 57.6953 8.85209C57.0879 8.85209 56.6012 8.98619 56.2372 9.25231C55.8732 9.52057 55.6912 9.87609 55.6912 10.319C55.6912 11.0279 56.4446 11.5581 57.9514 11.9051C58.1736 11.9604 58.345 12.0009 58.4656 12.0307L58.5968 12.0605C59.5788 12.2989 60.2306 12.5544 60.5544 12.829C60.7977 13.0377 60.984 13.2911 61.1109 13.587C61.2401 13.885 61.3035 14.2171 61.3035 14.5834C61.3035 15.4712 60.9882 16.1759 60.3576 16.6996C59.7291 17.2255 58.8761 17.4874 57.8011 17.4874C56.6943 17.4874 55.8309 17.2063 55.2129 16.6422C54.5949 16.078 54.2647 15.2689 54.2182 14.2172H54.2183ZM63.729 12.6588C63.729 13.8361 63.9977 14.7559 64.5374 15.4201C65.077 16.0822 65.8241 16.4143 66.7785 16.4143C67.7308 16.4143 68.4737 16.0822 69.0091 15.4201C69.5445 14.7559 69.8112 13.8361 69.8112 12.6588C69.8112 11.4772 69.5445 10.5553 69.0091 9.89532C68.4737 9.23323 67.7308 8.90318 66.7785 8.90318C65.8241 8.90318 65.077 9.23316 64.5374 9.89532C63.9977 10.5553 63.729 11.4772 63.729 12.6588ZM62.4465 12.6588C62.4465 11.1408 62.8295 9.95492 63.5956 9.09906C64.3638 8.24534 65.4241 7.81738 66.7785 7.81738C68.1308 7.81738 69.1869 8.24314 69.9509 9.09694C70.7128 9.94853 71.0937 11.1365 71.0937 12.6588C71.0937 14.1768 70.7128 15.3626 69.9509 16.2185C69.1869 17.0722 68.1308 17.5001 66.7785 17.5001C65.4241 17.5001 64.3638 17.0722 63.5956 16.2185C62.8295 15.3626 62.4465 14.1768 62.4465 12.6588ZM79.0424 13.8339H80.2487C80.1958 14.9517 79.8148 15.8416 79.1101 16.5059C78.4054 17.168 77.4954 17.5001 76.3801 17.5001C75.0934 17.5001 74.0861 17.0594 73.356 16.178C72.6258 15.2966 72.2618 14.0745 72.2618 12.5162C72.2618 11.077 72.6448 9.93363 73.4088 9.08629C74.1728 8.24109 75.2056 7.81738 76.5029 7.81738C77.5357 7.81738 78.3822 8.08564 79.0403 8.62215C79.7006 9.15866 80.0816 9.89106 80.1852 10.8193H78.9662C78.8498 10.2125 78.5747 9.74413 78.143 9.4184C77.7091 9.09268 77.1441 8.92872 76.4499 8.92872C75.5252 8.92872 74.8077 9.25444 74.2977 9.90809C73.7876 10.5617 73.5316 11.4814 73.5316 12.6715C73.5316 13.7935 73.7961 14.6941 74.3273 15.3711C74.8585 16.0502 75.5632 16.3888 76.4394 16.3888C77.1864 16.3888 77.8001 16.1546 78.2763 15.6883C78.7546 15.2199 79.0086 14.6025 79.0424 13.8339ZM81.7069 17.2446V8.06017H82.9513V11.8285H87.6875V8.06017H88.9319V17.2446H87.6875V12.9398H82.9513V17.2446H81.7069ZM90.9149 17.2446V8.06017H92.1593V17.2446H90.9149Z" fill="#D9D9D9"/>
<path d="M53.1181 21.3467H56.2809V30.9774C56.2809 32.1625 56.5144 33.0309 56.9849 33.5754C57.4555 34.1199 58.2019 34.394 59.2278 34.394C60.2644 34.394 61.0179 34.1236 61.4919 33.5826C61.966 33.0381 62.203 32.1696 62.203 30.9774V21.3468H65.3446V31.319C65.3446 33.2053 64.821 34.6503 63.7738 35.6575C62.7267 36.6646 61.2196 37.17 59.2526 37.17C57.2679 37.17 55.7502 36.6682 54.6995 35.6646C53.6452 34.6574 53.1181 33.2089 53.1181 31.319V21.3468V21.3467ZM71.5816 36.7429V24.1227H67.0604V21.3894H79.2232V24.1227H74.7231V36.7429H71.5816H71.5816ZM84.6183 36.7429L79.3541 21.3894H82.8353L86.083 32.8743L89.3943 21.3894H92.833L87.6325 36.7429H84.6184H84.6183ZM103.492 36.7429V24.1227H98.971V21.3894H111.134V24.1227H106.634V36.7429H103.492H103.492ZM116.083 28.0945H119.776C120.58 28.0945 121.17 27.9308 121.545 27.607C121.924 27.2795 122.111 26.767 122.111 26.0659C122.111 25.4003 121.927 24.895 121.563 24.5533C121.195 24.2081 120.65 24.0373 119.922 24.0373H116.083V28.0945ZM112.942 36.7429V21.3894H120.35C122.016 21.3894 123.247 21.7453 124.05 22.4606C124.853 23.176 125.253 24.2722 125.253 25.7421C125.253 26.6781 125.058 27.4611 124.666 28.0839C124.277 28.7103 123.714 29.1373 122.978 29.3651C123.64 29.6036 124.11 29.963 124.39 30.4506C124.669 30.9382 124.828 31.6963 124.871 32.7248L124.935 34.5399C124.935 34.5541 124.935 34.5755 124.935 34.604C124.956 35.5222 125.154 36.0774 125.529 36.2732V36.743H122.09C121.981 36.5259 121.896 36.2625 121.835 35.9457C121.779 35.6289 121.743 35.2517 121.729 34.814L121.687 33.1946C121.651 32.2408 121.475 31.6002 121.153 31.2657C120.831 30.9311 120.25 30.7639 119.416 30.7639H116.083V36.743H112.941L112.942 36.7429ZM133.779 24.4644L131.663 30.9987H135.902L133.779 24.4644ZM131.954 21.3894H135.58L141.085 36.7429H137.787L136.751 33.5825H130.836L129.831 36.7429H126.523L131.954 21.3894ZM145.871 36.7429L140.607 21.3894H144.088L147.336 32.8743L150.647 21.3894H154.086L148.885 36.7429H145.871H145.871ZM155.55 36.7429V21.3894H166.638V24.0586H158.649V27.3258H165.955V29.9523H158.649V33.9028H167.013V36.7428H155.55V36.7429ZM169.408 36.7429V21.3894H172.549V33.9028H180V36.7429H169.408Z" fill="#FEFEFE"/>
</svg>
