<svg width="40" height="41" viewBox="0 0 40 41" fill="none" xmlns="http://www.w3.org/2000/svg">
<path d="M20 40.2402C31.0457 40.2402 40 31.2322 40 20.1201C40 9.00808 31.0457 0 20 0C8.9543 0 0 9.00808 0 20.1201C0 31.2322 8.9543 40.2402 20 40.2402Z" fill="#CCA509"/>
<path d="M31.785 20.6203H29.3124C28.2045 20.6903 27.3212 21.5787 27.2518 22.6933V23.2697L24.3312 22.5442L25.2585 19.7414L32.0214 18.5392C32.1436 18.5199 32.25 18.4449 32.31 18.336C32.3713 18.227 32.3804 18.096 32.3347 17.9794L30.6862 13.8335C30.6236 13.6757 30.4718 13.5721 30.303 13.5723L23.0083 14.1911L17.0059 14.2168L9.69707 13.5723C9.52821 13.5721 9.37637 13.6757 9.3138 13.8335L7.66535 17.9794C7.61961 18.096 7.62862 18.227 7.69 18.336C7.75006 18.4449 7.85648 18.5199 7.97861 18.5392L14.7415 19.7414L15.6688 22.5442L12.7396 23.2697V22.6933C12.6702 21.5787 11.7869 20.6903 10.679 20.6203H8.20634C7.09845 20.6903 6.21516 21.5787 6.14577 22.6933V30.9852C6.21516 32.0999 7.09845 32.9883 8.20634 33.0581H10.679C11.7869 32.9883 12.6702 32.0999 12.7396 30.9852V27.0797L16.7031 25.6619L17.1358 26.9719C17.194 27.1397 17.3506 27.2528 17.5274 27.2539H22.4728C22.6495 27.2528 22.8062 27.1397 22.8643 26.9719L23.297 25.6619L27.2519 27.0797V30.9852C27.3213 32.0999 28.2046 32.9883 29.3125 33.0581H31.7852C32.8931 32.9883 33.7764 32.0999 33.8457 30.9852V22.6933C33.7764 21.5787 32.8931 20.6903 31.7852 20.6203H31.785ZM7.38187 22.2787H9.03032C9.25793 22.2787 9.44243 22.4644 9.44243 22.6933C9.44243 22.9223 9.25793 23.1079 9.03032 23.1079H7.38187C7.15426 23.1079 6.96975 22.9223 6.96975 22.6933C6.96975 22.4644 7.15426 22.2787 7.38187 22.2787ZM7.38187 25.5955H9.03032C9.25793 25.5955 9.44243 25.7812 9.44243 26.0101C9.44243 26.239 9.25793 26.4246 9.03032 26.4246H7.38187C7.15426 26.4246 6.96975 26.239 6.96975 26.0101C6.96975 25.7812 7.15426 25.5955 7.38187 25.5955ZM9.03032 29.7414H7.38187C7.15426 29.7414 6.96975 29.5558 6.96975 29.3268C6.96975 29.098 7.15426 28.9122 7.38187 28.9122H9.03032C9.25793 28.9122 9.44243 29.098 9.44243 29.3268C9.44243 29.5558 9.25793 29.7414 9.03032 29.7414ZM11.503 31.3998H9.85455C9.62694 31.3998 9.44243 31.2142 9.44243 30.9852C9.44243 30.7563 9.62694 30.5706 9.85455 30.5706H11.503C11.7306 30.5706 11.9151 30.7563 11.9151 30.9852C11.9151 31.2142 11.7306 31.3998 11.503 31.3998ZM11.503 28.0831H9.85455C9.62694 28.0831 9.44243 27.8975 9.44243 27.6685C9.44243 27.4396 9.62694 27.2539 9.85455 27.2539H11.503C11.7306 27.2539 11.9151 27.4396 11.9151 27.6685C11.9151 27.8975 11.7306 28.0831 11.503 28.0831ZM11.503 24.7663H9.85455C9.62694 24.7663 9.44243 24.5807 9.44243 24.3517C9.44243 24.1229 9.62694 23.9371 9.85455 23.9371H11.503C11.7306 23.9371 11.9151 24.1229 11.9151 24.3517C11.9151 24.5807 11.7306 24.7663 11.503 24.7663ZM23.4071 15.9668C23.4071 15.738 23.5916 15.5522 23.8192 15.5522L29.0665 15.2306C29.2432 15.2319 29.3999 15.3448 29.458 15.5127L29.8701 16.7565C29.9078 16.8724 29.8943 16.9991 29.833 17.1047C29.7694 17.2085 29.6641 17.2796 29.5447 17.2995L24.5992 18.1287C24.5773 18.1322 24.5554 18.1334 24.5332 18.1327C24.3056 18.1327 24.1211 17.9471 24.1211 17.7181L23.4071 15.9667V15.9668ZM15.4666 18.1328C15.4444 18.1334 15.4225 18.1323 15.4006 18.1288L10.4552 17.2996C10.3357 17.2797 10.2304 17.2086 10.1669 17.1048C10.1056 16.9992 10.092 16.8725 10.1297 16.7566L10.5418 15.5128C10.5999 15.3449 10.7565 15.232 10.9334 15.2307L16.2449 15.7005C16.4725 15.7005 16.657 15.8862 16.657 16.1151L15.8788 17.7183C15.8788 17.9473 15.6943 18.1329 15.4667 18.1329L15.4666 18.1328ZM12.7394 26.1222V24.1943L15.9321 23.336L16.435 24.8577L12.7393 26.1222L12.7394 26.1222ZM21.6484 23.9371H18.3515C18.1239 23.9371 17.9393 23.7515 17.9393 23.5225C17.9393 23.2937 18.1239 23.1079 18.3515 23.1079H21.6484C21.876 23.1079 22.0605 23.2937 22.0605 23.5225C22.0605 23.7515 21.876 23.9371 21.6484 23.9371ZM22.0605 21.8642H17.9393C17.7117 21.8642 17.5272 21.6786 17.5272 21.4496C17.5272 21.2207 17.7117 21.035 17.9393 21.035H22.0605C22.2881 21.035 22.4726 21.2207 22.4726 21.4496C22.4726 21.6786 22.2881 21.8642 22.0605 21.8642ZM22.8847 19.7912H17.1151C16.8874 19.7912 16.7029 19.6056 16.7029 19.3766C16.7029 19.1478 16.8874 18.962 17.1151 18.962H22.8847C23.1123 18.962 23.2968 19.1478 23.2968 19.3766C23.2968 19.6056 23.1123 19.7912 22.8847 19.7912ZM27.2517 26.1222L23.5647 24.8577L24.0676 23.336L27.2517 24.1943V26.1222V26.1222ZM28.4881 23.9372H30.1365C30.3641 23.9372 30.5486 24.1229 30.5486 24.3518C30.5486 24.5807 30.3641 24.7664 30.1365 24.7664H28.4881C28.2605 24.7664 28.076 24.5807 28.076 24.3518C28.076 24.1229 28.2605 23.9372 28.4881 23.9372ZM28.4881 27.254H30.1365C30.3641 27.254 30.5486 27.4397 30.5486 27.6685C30.5486 27.8975 30.3641 28.0831 30.1365 28.0831H28.4881C28.2605 28.0831 28.076 27.8975 28.076 27.6685C28.076 27.4397 28.2605 27.254 28.4881 27.254ZM30.1365 31.3999H28.4881C28.2605 31.3999 28.076 31.2143 28.076 30.9853C28.076 30.7565 28.2605 30.5707 28.4881 30.5707H30.1365C30.3641 30.5707 30.5486 30.7565 30.5486 30.9853C30.5486 31.2143 30.3641 31.3999 30.1365 31.3999ZM32.6092 29.7415H30.9608C30.7331 29.7415 30.5486 29.5559 30.5486 29.327C30.5486 29.0981 30.7331 28.9124 30.9608 28.9124H32.6092C32.8368 28.9124 33.0213 29.0981 33.0213 29.327C33.0213 29.5559 32.8368 29.7415 32.6092 29.7415ZM32.6092 26.4248H30.9608C30.7331 26.4248 30.5486 26.2392 30.5486 26.0102C30.5486 25.7813 30.7331 25.5956 30.9608 25.5956H32.6092C32.8368 25.5956 33.0213 25.7813 33.0213 26.0102C33.0213 26.2392 32.8368 26.4248 32.6092 26.4248ZM32.6092 23.1081H30.9608C30.7331 23.1081 30.5486 22.9225 30.5486 22.6935C30.5486 22.4646 30.7331 22.2789 30.9608 22.2789H32.6092C32.8368 22.2789 33.0213 22.4646 33.0213 22.6935C33.0213 22.9225 32.8368 23.1081 32.6092 23.1081Z" fill="#FEFEFE"/>
<path fill-rule="evenodd" clip-rule="evenodd" d="M11.1086 13.136L13.9207 7.16708C13.9979 7.00318 14.201 6.88184 14.3814 6.88184H25.529C25.7925 6.88184 25.9942 7.02886 26.0878 7.22769L28.8714 13.136L27.4178 13.2749L25.1706 8.52087C25.0623 8.29177 24.8852 8.1706 24.6069 8.2214L23.1221 8.49255H16.8467L15.2993 8.22071C15.053 8.1774 14.8746 8.34847 14.79 8.52842L12.5659 13.258L11.1087 13.136L11.1086 13.136Z" fill="#FEFEFE"/>
<path fill-rule="evenodd" clip-rule="evenodd" d="M19.6382 13.1359C19.5916 12.6285 19.3695 12.1874 19.0552 11.9114C18.8748 11.7531 18.5618 11.5209 18.4895 11.3165L18.1366 10.3182C17.9162 9.69462 17.5359 9.66706 17.2627 9.66706H16.8467V13.5973L14.0552 13.3744C14.0552 12.7924 14.3239 12.1874 14.6382 11.9114C14.8186 11.753 15.1316 11.5208 15.2039 11.3164L15.5568 10.3181C15.7772 9.69456 16.1575 9.66699 16.4307 9.66699H16.8467V13.5972L19.6783 13.5719L19.6382 13.1358L19.6382 13.1359ZM15.6537 12.1254C15.715 12.1499 16.3476 12.2727 16.4203 12.0788L16.6555 11.4515C16.7207 11.2778 16.58 11.1496 16.4563 11.1496H16.1831C16.0949 11.1496 15.9815 11.2302 15.9418 11.2918L15.7092 11.6521C15.5779 11.8556 15.3556 12.0062 15.6537 12.1254H15.6537ZM18.0814 12.1254C18.0201 12.1499 17.3874 12.2727 17.3147 12.0788L17.0795 11.4515C17.0144 11.2778 17.1551 11.1496 17.2787 11.1496H17.552C17.6402 11.1496 17.7535 11.2302 17.7933 11.2918L18.0258 11.6521C18.1572 11.8556 18.3795 12.0062 18.0813 12.1254H18.0814Z" fill="#FEFEFE"/>
<path fill-rule="evenodd" clip-rule="evenodd" d="M20.3418 13.1359C20.3884 12.6285 20.6105 12.1874 20.9248 11.9114C21.1052 11.7531 21.4183 11.5209 21.4905 11.3165L21.8434 10.3182C22.0638 9.69462 22.4441 9.66706 22.7173 9.66706H23.1333V13.5973L25.9248 13.3744C25.9248 12.7924 25.6561 12.1874 25.3418 11.9114C25.1614 11.753 24.8484 11.5208 24.7761 11.3164L24.4232 10.3181C24.2028 9.69456 23.8225 9.66699 23.5493 9.66699H23.1334V13.5972L20.3017 13.5719L20.3418 13.1358L20.3418 13.1359ZM24.3263 12.1254C24.265 12.1499 23.6324 12.2727 23.5597 12.0788L23.3245 11.4515C23.2594 11.2778 23.4001 11.1496 23.5237 11.1496H23.7969C23.8851 11.1496 23.9985 11.2302 24.0382 11.2918L24.2708 11.6521C24.4022 11.8556 24.6245 12.0062 24.3263 12.1254H24.3263ZM21.8986 12.1254C21.96 12.1499 22.5926 12.2727 22.6653 12.0788L22.9005 11.4515C22.9656 11.2778 22.8249 11.1496 22.7013 11.1496H22.4281C22.3398 11.1496 22.2265 11.2302 22.1867 11.2918L21.9542 11.6521C21.8228 11.8556 21.6005 12.0062 21.8987 12.1254H21.8986Z" fill="#FEFEFE"/>
<path d="M19.9999 2.01074C24.9709 2.01074 29.4713 4.0378 32.729 7.31499C35.9866 10.5922 38.0015 15.1197 38.0015 20.1205C38.0015 23.5423 37.0579 26.7424 35.4186 29.4721V27.8489C36.5731 25.5222 37.2227 22.8977 37.2227 20.1205C37.2227 15.3359 35.295 11.0044 32.1783 7.86899C29.0617 4.73361 24.7559 2.79429 20 2.79429C15.244 2.79429 10.9383 4.73361 7.82165 7.86899C4.70499 11.0044 2.77724 15.336 2.77724 20.1205C2.77724 22.9651 3.45876 25.6496 4.66632 28.0178V29.6118C2.9747 26.8518 1.99844 23.6009 1.99844 20.1205C1.99844 15.1197 4.0134 10.5922 7.27101 7.31499C10.5287 4.0378 15.0291 2.01074 20.0001 2.01074H19.9999ZM31.0784 34.3953C28.0237 36.798 24.1781 38.2302 19.9999 38.2302C15.8219 38.2302 11.9763 36.798 8.92153 34.3953H10.2364C13.0112 36.3197 16.3747 37.4467 20 37.4467C23.6252 37.4467 26.9888 36.3197 29.7636 34.3953H31.0784H31.0784Z" fill="#FEFEFE"/>
</svg>
