<svg width="220" height="56" viewBox="0 0 220 56" fill="none" xmlns="http://www.w3.org/2000/svg">
<g clip-path="url(#clip0_4_6)">
<path d="M27.5551 55.44C42.773 55.44 55.1096 43.0293 55.1096 27.72C55.1096 12.4107 42.773 0 27.5551 0C12.3371 0 0.000549316 12.4107 0.000549316 27.72C0.000549316 43.0293 12.3371 55.44 27.5551 55.44Z" fill="#2B2A29"/>
<path d="M43.7916 28.409H40.3849C38.8586 28.5055 37.6416 29.7294 37.546 31.265V32.0591L33.5223 31.0596L34.7998 27.1982L44.1173 25.5417C44.2856 25.5152 44.4322 25.4119 44.5149 25.2619C44.5994 25.1117 44.6119 24.9313 44.5489 24.7706L42.2777 19.0586C42.1915 18.8413 41.9823 18.6985 41.7497 18.6987L31.6997 19.5513L23.4301 19.5867L13.3605 18.6987C13.1278 18.6986 12.9186 18.8413 12.8324 19.0586L10.5613 24.7706C10.4983 24.9313 10.5107 25.1117 10.5953 25.2619C10.678 25.4118 10.8246 25.5152 10.9929 25.5417L20.3103 27.1982L21.5879 31.0596L17.5522 32.0591V31.265C17.4566 29.7294 16.2397 28.5054 14.7133 28.409H11.3066C9.78026 28.5055 8.56334 29.7294 8.46774 31.265V42.689C8.56334 44.2248 9.78026 45.4487 11.3066 45.5449H14.7133C16.2397 45.4487 17.4566 44.2247 17.5522 42.689V37.3083L23.0129 35.3549L23.609 37.1598C23.6891 37.391 23.9049 37.5467 24.1484 37.5483H30.9619C31.2054 37.5467 31.4212 37.391 31.5013 37.1598L32.0974 35.3549L37.5462 37.3083V42.689C37.6418 44.2248 38.8587 45.4487 40.3851 45.5449H43.7918C45.3182 45.4487 46.5351 44.2247 46.6307 42.689V31.265C46.5351 29.7294 45.3182 28.5054 43.7918 28.409H43.7916ZM10.1707 30.6938H12.4419C12.7554 30.6938 13.0096 30.9497 13.0096 31.265C13.0096 31.5805 12.7554 31.8362 12.4419 31.8362H10.1707C9.85715 31.8362 9.60296 31.5805 9.60296 31.265C9.60296 30.9497 9.85715 30.6938 10.1707 30.6938ZM10.1707 35.2634H12.4419C12.7554 35.2634 13.0096 35.5193 13.0096 35.8346C13.0096 36.1501 12.7554 36.4058 12.4419 36.4058H10.1707C9.85715 36.4058 9.60296 36.1501 9.60296 35.8346C9.60296 35.5193 9.85715 35.2634 10.1707 35.2634ZM12.4419 40.9754H10.1707C9.85715 40.9754 9.60296 40.7197 9.60296 40.4042C9.60296 40.0889 9.85715 39.833 10.1707 39.833H12.4419C12.7554 39.833 13.0096 40.0889 13.0096 40.4042C13.0096 40.7197 12.7554 40.9754 12.4419 40.9754ZM15.8485 43.2601H13.5774C13.2638 43.2601 13.0096 43.0044 13.0096 42.689C13.0096 42.3737 13.2638 42.1178 13.5774 42.1178H15.8485C16.1621 42.1178 16.4163 42.3737 16.4163 42.689C16.4163 43.0044 16.1621 43.2601 15.8485 43.2601ZM15.8485 38.6906H13.5774C13.2638 38.6906 13.0096 38.4349 13.0096 38.1194C13.0096 37.8041 13.2638 37.5483 13.5774 37.5483H15.8485C16.1621 37.5483 16.4163 37.8041 16.4163 38.1194C16.4163 38.4349 16.1621 38.6906 15.8485 38.6906ZM15.8485 34.121H13.5774C13.2638 34.121 13.0096 33.8653 13.0096 33.5498C13.0096 33.2345 13.2638 32.9786 13.5774 32.9786H15.8485C16.1621 32.9786 16.4163 33.2345 16.4163 33.5498C16.4163 33.8653 16.1621 34.121 15.8485 34.121ZM32.2491 21.9978C32.2491 21.6825 32.5033 21.4266 32.8168 21.4266L40.0462 20.9835C40.2897 20.9853 40.5055 21.1408 40.5856 21.3721L41.1534 23.0857C41.2053 23.2454 41.1867 23.4199 41.1022 23.5654C41.0146 23.7084 40.8695 23.8064 40.705 23.8338L33.8916 24.9762C33.8614 24.9811 33.8312 24.9827 33.8006 24.9817C33.487 24.9817 33.2328 24.726 33.2328 24.4105L32.2491 21.9976V21.9978ZM21.3093 24.9819C21.2787 24.9828 21.2485 24.9812 21.2183 24.9764L14.4049 23.834C14.2404 23.8066 14.0953 23.7086 14.0077 23.5656C13.9232 23.4201 13.9045 23.2456 13.9565 23.0859L14.5243 21.3723C14.6044 21.141 14.8201 20.9854 15.0637 20.9837L22.3816 21.6308C22.6952 21.6308 22.9494 21.8867 22.9494 22.202L21.8772 24.4108C21.8772 24.7263 21.623 24.982 21.3094 24.982L21.3093 24.9819ZM17.552 35.989V33.333L21.9507 32.1504L22.6435 34.2469L17.5519 35.9891L17.552 35.989ZM29.8261 32.9786H25.2838C24.9702 32.9786 24.7161 32.7229 24.7161 32.4075C24.7161 32.0922 24.9702 31.8363 25.2838 31.8363H29.8261C30.1397 31.8363 30.3938 32.0922 30.3938 32.4075C30.3938 32.7229 30.1397 32.9786 29.8261 32.9786ZM30.3938 30.1227H24.716C24.4024 30.1227 24.1482 29.867 24.1482 29.5515C24.1482 29.2362 24.4024 28.9803 24.716 28.9803H30.3938C30.7074 28.9803 30.9616 29.2362 30.9616 29.5515C30.9616 29.867 30.7074 30.1227 30.3938 30.1227ZM31.5294 27.2667H23.5804C23.2668 27.2667 23.0126 27.011 23.0126 26.6956C23.0126 26.3803 23.2668 26.1244 23.5804 26.1244H31.5294C31.843 26.1244 32.0972 26.3803 32.0972 26.6956C32.0972 27.011 31.843 27.2667 31.5294 27.2667ZM37.546 35.9891L32.4663 34.2469L33.1591 32.1504L37.546 33.333V35.989V35.9891ZM39.2493 32.9787H41.5204C41.834 32.9787 42.0882 33.2346 42.0882 33.5499C42.0882 33.8654 41.834 34.1211 41.5204 34.1211H39.2493C38.9357 34.1211 38.6815 33.8654 38.6815 33.5499C38.6815 33.2346 38.9357 32.9787 39.2493 32.9787ZM39.2493 37.5483H41.5204C41.834 37.5483 42.0882 37.8042 42.0882 38.1195C42.0882 38.435 41.834 38.6907 41.5204 38.6907H39.2493C38.9357 38.6907 38.6815 38.435 38.6815 38.1195C38.6815 37.8042 38.9357 37.5483 39.2493 37.5483ZM41.5204 43.2603H39.2493C38.9357 43.2603 38.6815 43.0046 38.6815 42.6891C38.6815 42.3738 38.9357 42.1179 39.2493 42.1179H41.5204C41.834 42.1179 42.0882 42.3738 42.0882 42.6891C42.0882 43.0046 41.834 43.2603 41.5204 43.2603ZM44.9271 40.9756H42.656C42.3424 40.9756 42.0882 40.7198 42.0882 40.4044C42.0882 40.0891 42.3424 39.8332 42.656 39.8332H44.9271C45.2407 39.8332 45.4949 40.0891 45.4949 40.4044C45.4949 40.7198 45.2407 40.9756 44.9271 40.9756ZM44.9271 36.406H42.656C42.3424 36.406 42.0882 36.1502 42.0882 35.8348C42.0882 35.5195 42.3424 35.2636 42.656 35.2636H44.9271C45.2407 35.2636 45.4949 35.5195 45.4949 35.8348C45.4949 36.1502 45.2407 36.406 44.9271 36.406ZM44.9271 31.8364H42.656C42.3424 31.8364 42.0882 31.5807 42.0882 31.2653C42.0882 30.95 42.3424 30.6941 42.656 30.6941H44.9271C45.2407 30.6941 45.4949 30.95 45.4949 31.2653C45.4949 31.5807 45.2407 31.8364 44.9271 31.8364Z" fill="#FEFEFE"/>
<path fill-rule="evenodd" clip-rule="evenodd" d="M15.3051 18.0979L19.1794 9.87437C19.2858 9.64857 19.5657 9.48138 19.8141 9.48138H35.1725C35.5355 9.48138 35.8134 9.68395 35.9424 9.95788L39.7774 18.0979L37.7748 18.2893L34.6787 11.7395C34.5295 11.4239 34.2855 11.257 33.9021 11.3269L31.8564 11.7005H23.2106L21.0788 11.326C20.7394 11.2663 20.4937 11.502 20.3771 11.7499L17.3128 18.2659L15.3052 18.098L15.3051 18.0979Z" fill="#FEFEFE"/>
<path fill-rule="evenodd" clip-rule="evenodd" d="M27.0566 18.0979C26.9924 17.3989 26.6864 16.7911 26.2534 16.4109C26.0049 16.1928 25.5735 15.8729 25.474 15.5912L24.9878 14.2158C24.6842 13.3568 24.1602 13.3188 23.7838 13.3188H23.2107V18.7336L19.3648 18.4265C19.3648 17.6246 19.7349 16.7911 20.168 16.4109C20.4165 16.1927 20.8478 15.8728 20.9474 15.5911L21.4335 14.2158C21.7372 13.3567 22.2612 13.3187 22.6375 13.3187H23.2106V18.7335L27.1118 18.6986L27.0567 18.0977L27.0566 18.0979ZM21.567 16.7058C21.6515 16.7395 22.5231 16.9087 22.6233 16.6415L22.9473 15.7772C23.037 15.538 22.8432 15.3613 22.6728 15.3613H22.2964C22.1749 15.3613 22.0187 15.4724 21.964 15.5572L21.6436 16.0536C21.4626 16.334 21.1563 16.5414 21.5671 16.7058H21.567ZM24.9117 16.7058C24.8273 16.7395 23.9556 16.9087 23.8555 16.6415L23.5315 15.7772C23.4417 15.538 23.6356 15.3613 23.8059 15.3613H24.1823C24.3039 15.3613 24.4601 15.4724 24.5148 15.5572L24.8352 16.0536C25.0162 16.334 25.3225 16.5414 24.9116 16.7058H24.9117Z" fill="#FEFEFE"/>
<path fill-rule="evenodd" clip-rule="evenodd" d="M28.026 18.0979C28.0901 17.3989 28.3961 16.7911 28.8292 16.4109C29.0777 16.1928 29.509 15.8729 29.6086 15.5912L30.0947 14.2158C30.3984 13.3568 30.9224 13.3188 31.2987 13.3188H31.8719V18.7336L35.7178 18.4265C35.7178 17.6246 35.3477 16.7911 34.9146 16.4109C34.6661 16.1927 34.2348 15.8728 34.1352 15.5911L33.6491 14.2158C33.3454 13.3567 32.8214 13.3187 32.4451 13.3187H31.872V18.7335L27.9708 18.6986L28.0259 18.0977L28.026 18.0979ZM33.5156 16.7058C33.4311 16.7395 32.5595 16.9087 32.4593 16.6415L32.1353 15.7772C32.0456 15.538 32.2394 15.3613 32.4097 15.3613H32.7862C32.9077 15.3613 33.0639 15.4724 33.1186 15.5572L33.439 16.0536C33.62 16.334 33.9263 16.5414 33.5155 16.7058H33.5156ZM30.1709 16.7058C30.2553 16.7395 31.127 16.9087 31.2271 16.6415L31.5511 15.7772C31.6409 15.538 31.447 15.3613 31.2767 15.3613H30.9003C30.7787 15.3613 30.6225 15.4724 30.5678 15.5572L30.2474 16.0536C30.0664 16.334 29.7601 16.5414 30.1709 16.7058H30.1709Z" fill="#FEFEFE"/>
<path d="M27.555 2.76984C34.4036 2.76984 40.6039 5.56257 45.0921 10.0776C49.5802 14.5928 52.3563 20.8303 52.3563 27.7201C52.3563 32.4344 51.0562 36.8433 48.7976 40.6041V38.3677C50.3882 35.1622 51.2833 31.5463 51.2833 27.7201C51.2833 21.1283 48.6274 15.1606 44.3335 10.8409C40.0396 6.5212 34.1074 3.84935 27.555 3.84935C21.0026 3.84935 15.0705 6.5212 10.7766 10.8409C6.48273 15.1606 3.82683 21.1284 3.82683 27.7201C3.82683 31.6392 4.76577 35.3377 6.42946 38.6004V40.7965C4.09886 36.994 2.75385 32.5151 2.75385 27.7201C2.75385 20.8303 5.52991 14.5928 10.018 10.0776C14.5062 5.56257 20.7065 2.76984 27.5551 2.76984H27.555ZM42.818 47.3869C38.6095 50.6971 33.3113 52.6702 27.555 52.6702C21.7987 52.6702 16.5005 50.6971 12.292 47.3869H14.1035C17.9264 50.0382 22.5604 51.5908 27.555 51.5908C32.5496 51.5908 37.1837 50.0382 41.0066 47.3869H42.8181H42.818Z" fill="#FEFEFE"/>
<path d="M66.2669 17.3761H67.7257C67.7412 18.1907 68.0102 18.8385 68.5327 19.3225C69.0578 19.804 69.7561 20.0459 70.6304 20.0459C71.4942 20.0459 72.1772 19.8638 72.6737 19.4968C73.173 19.13 73.4212 18.6303 73.4212 18.0007C73.4212 17.1419 72.4849 16.4862 70.6148 16.0387C70.5036 16.0126 70.4182 15.9944 70.3587 15.9788C68.8429 15.6171 67.8419 15.2138 67.3557 14.7714C66.8667 14.3265 66.6237 13.6942 66.6237 12.877C66.6237 11.8752 66.9884 11.0711 67.7152 10.4649C68.442 9.85859 69.4094 9.55414 70.6173 9.55414C71.8486 9.55414 72.8186 9.8716 73.5247 10.5091C74.2334 11.1441 74.5903 12.0184 74.6007 13.1295L73.1574 13.1373C73.1057 12.3905 72.8522 11.8154 72.3944 11.4173C71.9365 11.0192 71.3106 10.8188 70.5165 10.8188C69.7742 10.8188 69.1792 10.9827 68.7344 11.3079C68.2895 11.6358 68.067 12.0703 68.067 12.6116C68.067 13.4782 68.9879 14.1261 70.8295 14.5502C71.1011 14.6178 71.3105 14.6673 71.458 14.7037L71.6183 14.7401C72.8186 15.0316 73.6152 15.3438 74.0109 15.6795C74.3084 15.9345 74.536 16.2442 74.6912 16.6059C74.849 16.9702 74.9266 17.3761 74.9266 17.8237C74.9266 18.9087 74.5412 19.7701 73.7704 20.4102C73.0022 21.0529 71.9598 21.373 70.6459 21.373C69.2931 21.373 68.2378 21.0295 67.4824 20.34C66.7272 19.6504 66.3236 18.6616 66.2667 17.3761H66.2669ZM77.891 15.4714C77.891 16.9103 78.2195 18.0345 78.8791 18.8463C79.5386 19.6555 80.4517 20.0614 81.6182 20.0614C82.7822 20.0614 83.6901 19.6555 84.3445 18.8463C84.9989 18.0345 85.3248 16.9103 85.3248 15.4714C85.3248 14.0272 84.9989 12.9005 84.3445 12.0938C83.6901 11.2846 82.7822 10.8812 81.6182 10.8812C80.4517 10.8812 79.5386 11.2845 78.8791 12.0938C78.2195 12.9005 77.891 14.0272 77.891 15.4714ZM76.3235 15.4714C76.3235 13.6161 76.7916 12.1667 77.728 11.1206C78.6669 10.0772 79.9628 9.55414 81.6182 9.55414C83.2711 9.55414 84.5618 10.0745 85.4956 11.118C86.4267 12.1589 86.8923 13.6108 86.8923 15.4714C86.8923 17.3267 86.4267 18.7761 85.4956 19.8221C84.5618 20.8655 83.2711 21.3886 81.6182 21.3886C79.9628 21.3886 78.6669 20.8655 77.728 19.8221C76.7916 18.7761 76.3235 17.3267 76.3235 15.4714ZM96.6075 16.9077H98.0818C98.0171 18.2738 97.5515 19.3615 96.6902 20.1734C95.8288 20.9827 94.7166 21.3886 93.3535 21.3886C91.7809 21.3886 90.5497 20.8499 89.6573 19.7727C88.7649 18.6954 88.3201 17.2018 88.3201 15.2971C88.3201 13.5381 88.7882 12.1407 89.722 11.105C90.6557 10.072 91.918 9.55414 93.5036 9.55414C94.7659 9.55414 95.8005 9.88201 96.6049 10.5377C97.4119 11.1935 97.8775 12.0886 98.0042 13.2231H96.5143C96.3721 12.4815 96.0358 11.909 95.5081 11.5109C94.9778 11.1128 94.2872 10.9124 93.4389 10.9124C92.3086 10.9124 91.4317 11.3105 90.8083 12.1094C90.1849 12.9083 89.8719 14.0324 89.8719 15.487C89.8719 16.8583 90.1953 17.959 90.8445 18.7865C91.4937 19.6165 92.3551 20.0303 93.4259 20.0303C94.339 20.0303 95.0891 19.7441 95.6711 19.1742C96.2557 18.6017 96.5661 17.8471 96.6075 16.9077ZM99.864 21.0764V9.85088H101.385V14.4566H107.174V9.85088H108.695V21.0764H107.174V15.8149H101.385V21.0764H99.864ZM111.118 21.0764V9.85088H112.639V21.0764H111.118Z" fill="#5B5B5B"/>
<path d="M64.9221 26.0905H68.7877V37.8613C68.7877 39.3098 69.0731 40.3712 69.6482 41.0367C70.2233 41.7022 71.1356 42.0372 72.3895 42.0372C73.6565 42.0372 74.5775 41.7066 75.1568 41.0454C75.7362 40.3799 76.0259 39.3185 76.0259 37.8614V26.0905H79.8656V38.2789C79.8656 40.5843 79.2257 42.3504 77.9458 43.5814C76.6659 44.8124 74.8239 45.4301 72.4198 45.4301C69.9941 45.4301 68.1391 44.8168 66.8549 43.5901C65.5664 42.3591 64.9221 40.5887 64.9221 38.2789V26.0905V26.0905ZM87.4887 44.9081V29.4833H81.9627V26.1427H96.8283V29.4833H91.3282V44.9081H87.4886H87.4887ZM103.422 44.9081L96.9884 26.1427H101.243L105.212 40.1798L109.26 26.1427H113.463L107.106 44.9081H103.422H103.422ZM126.49 44.9081V29.4833H120.964V26.1427H135.83V29.4833H130.33V44.9081H126.49H126.49ZM141.879 34.3378H146.393C147.375 34.3378 148.097 34.1378 148.555 33.7419C149.018 33.3417 149.247 32.7153 149.247 31.8584C149.247 31.0449 149.022 30.4272 148.577 30.0097C148.127 29.5877 147.462 29.3789 146.571 29.3789H141.879V34.3378ZM138.04 44.9081V26.1427H147.094C149.131 26.1427 150.635 26.5776 151.617 27.452C152.598 28.3263 153.087 29.666 153.087 31.4626C153.087 32.6066 152.849 33.5636 152.369 34.3248C151.894 35.0904 151.206 35.6123 150.307 35.8908C151.115 36.1822 151.69 36.6215 152.032 37.2175C152.374 37.8134 152.568 38.74 152.62 39.9971L152.698 42.2155C152.698 42.2329 152.698 42.259 152.698 42.2938C152.724 43.4161 152.966 44.0947 153.424 44.3339V44.9081H149.221C149.087 44.6428 148.984 44.3209 148.91 43.9337C148.841 43.5466 148.798 43.0855 148.78 42.5505L148.728 40.5713C148.685 39.4055 148.469 38.6226 148.075 38.2137C147.682 37.8047 146.973 37.6004 145.952 37.6004H141.879V44.9081H138.04L138.04 44.9081ZM163.508 29.901L160.922 37.8874H166.102L163.508 29.901ZM161.276 26.1427H165.709L172.437 44.9081H168.407L167.14 41.0454H159.91L158.682 44.9081H154.639L161.276 26.1427ZM178.287 44.9081L171.853 26.1427H176.108L180.077 40.1798L184.124 26.1427H188.327L181.971 44.9081H178.287H178.287ZM190.117 44.9081V26.1427H203.668V29.405H193.905V33.3982H202.834V36.6084H193.905V41.4368H204.127V44.908H190.117V44.9081ZM207.054 44.9081V26.1427H210.894V41.4369H220V44.9081H207.054Z" fill="black"/>
</g>
<defs>
<clipPath id="clip0_4_6">
<rect width="220" height="55.44" fill="white"/>
</clipPath>
</defs>
</svg>
