<svg width="60" height="60" viewBox="0 0 60 60" fill="none" xmlns="http://www.w3.org/2000/svg">
<path d="M29 21.5675C31.5775 21.5325 34.1675 22.4875 36.135 24.455C38.1025 26.4225 39.0575 29.0125 39.0225 31.59M29 11.5C34.14 11.5 39.2825 13.4625 43.205 17.385C47.1275 21.3075 49.0903 26.45 49.0903 31.59M25.8122 34.1878C22.8079 31.1835 20.5431 27.8197 19.0384 24.4072C18.72 23.6856 18.9074 22.8408 19.4646 22.2836L21.5677 20.1832C23.2906 18.4602 23.2906 16.0234 21.7859 14.5186L18.7713 11.5041C16.7659 9.49864 13.5151 9.49864 11.5097 11.5041L9.83549 13.1783C7.93276 15.081 7.13932 17.8259 7.65288 20.5478C8.92136 27.2574 12.8192 34.6038 19.1077 40.8923C25.3962 47.1808 32.7426 51.0786 39.4522 52.3471C42.1741 52.8607 44.919 52.0672 46.8217 50.1645L48.4934 48.4929C50.4988 46.4875 50.4988 43.2367 48.4934 41.2312L45.4814 38.2192C43.9766 36.7145 41.5373 36.7145 40.0351 38.2192L37.7164 40.5405C37.1592 41.0977 36.3144 41.2851 35.5928 40.9667C32.1803 39.4595 28.8165 37.1921 25.8122 34.1878Z" stroke="#272525" stroke-width="2.5" stroke-linecap="round" stroke-linejoin="round"/>
</svg>
