<svg width="31" height="31" viewBox="0 0 31 31" fill="none" xmlns="http://www.w3.org/2000/svg">
<g clip-path="url(#clip0_151_711)">
<path d="M4.6066 4.60653C-1.25089 10.464 -1.25156 19.9616 4.6066 25.8197C10.4648 31.6779 19.9616 31.6779 25.8198 25.8197C31.678 19.9616 31.678 10.4647 25.8198 4.60653C19.9616 -1.25163 10.4648 -1.25163 4.6066 4.60653ZM24.5152 24.5151C19.3975 29.6328 11.0501 29.6116 5.93243 24.4939C0.814742 19.3762 0.814742 11.05 5.93243 5.93236C11.0501 0.814674 19.3763 0.814673 24.494 5.93236C29.6117 11.05 29.6329 19.3974 24.5152 24.5151ZM15.2139 7.71361C14.6968 7.7136 14.2772 8.13323 14.2765 8.65096V14.2751L8.65236 14.2751C8.13529 14.2751 7.715 14.6954 7.71434 15.2131C7.71367 15.7309 8.13462 16.1505 8.65169 16.1505L14.2758 16.1505V21.7746C14.2758 22.2917 14.6961 22.712 15.2132 22.712C15.7303 22.712 16.1506 22.2917 16.1512 21.774L16.1512 16.1498H21.7754C22.2924 16.1498 22.7121 15.7302 22.7127 15.2125C22.7134 14.6947 22.2924 14.2751 21.7754 14.2751L16.1512 14.2751L16.1512 8.65096C16.1512 8.13257 15.7316 7.71294 15.2139 7.71361Z" fill="#006633"/>
</g>
<defs>
<clipPath id="clip0_151_711">
<rect width="31" height="31" fill="white"/>
</clipPath>
</defs>
</svg>
