<svg width="31" height="31" viewBox="0 0 31 31" fill="none" xmlns="http://www.w3.org/2000/svg">
<path d="M15.2129 0.213135C6.92914 0.213135 0.212891 6.92845 0.212891 15.2131C0.212891 23.4978 6.9282 30.2131 15.2129 30.2131C23.4976 30.2131 30.2129 23.4978 30.2129 15.2131C30.2129 6.92845 23.4976 0.213135 15.2129 0.213135ZM15.2129 28.3681C7.97539 28.3681 2.08789 22.4506 2.08789 15.2131C2.08789 7.97564 7.97539 2.08813 15.2129 2.08813C22.4504 2.08813 28.3379 7.97564 28.3379 15.2131C28.3379 22.4506 22.4504 28.3681 15.2129 28.3681ZM20.5163 9.91063C20.1507 9.54501 19.5573 9.54501 19.1907 9.91063L15.2138 13.8875L11.237 9.91063C10.8713 9.54501 10.277 9.54501 9.91039 9.91063C9.54383 10.2763 9.54477 10.8706 9.91039 11.2363L13.8873 15.2131L9.91039 19.19C9.54477 19.5556 9.54477 20.15 9.91039 20.5156C10.276 20.8813 10.8704 20.8813 11.237 20.5156L15.2138 16.5388L19.1907 20.5156C19.5563 20.8813 20.1498 20.8813 20.5163 20.5156C20.8829 20.15 20.882 19.5556 20.5163 19.19L16.5395 15.2131L20.5163 11.2363C20.8829 10.8697 20.8829 10.2763 20.5163 9.91063Z" fill="#CCA509"/>
</svg>
