<svg width="35" height="35" viewBox="0 0 35 35" fill="none" xmlns="http://www.w3.org/2000/svg">
<circle cx="17.2308" cy="17.2308" r="16.2308" stroke="white" stroke-width="2"/>
<mask id="mask0_903_38" style="mask-type:luminance" maskUnits="userSpaceOnUse" x="7" y="7" width="21" height="21">
<path d="M22.9091 7H12.0909C9.27928 7 7 9.27928 7 12.0909V22.9091C7 25.7207 9.27928 28 12.0909 28H22.9091C25.7207 28 28 25.7207 28 22.9091V12.0909C28 9.27928 25.7207 7 22.9091 7Z" fill="white"/>
</mask>
<g mask="url(#mask0_903_38)">
<path d="M28 7H7V28H28V7Z" fill="white"/>
<path d="M28 17.5C33.799 17.5 38.5 12.799 38.5 7.00001C38.5 1.20101 33.799 -3.5 28 -3.5C22.201 -3.5 17.5 1.20101 17.5 7.00001C17.5 12.799 22.201 17.5 28 17.5Z" fill="#DDDDDD"/>
<path d="M19.9717 17.0206H13.7675V14.5655H19.9717C20.334 14.5655 20.586 14.6287 20.7125 14.739C20.839 14.8493 20.9173 15.0539 20.9173 15.3528V16.2343C20.9173 16.5492 20.839 16.7538 20.7125 16.8641C20.586 16.9744 20.334 17.0215 19.9717 17.0215V17.0206ZM20.3973 12.2509H11.1364V22.75H13.7675V19.3342H18.6164L20.9173 22.75H23.8636L21.3269 19.3182C22.2621 19.1796 22.6821 18.893 23.0284 18.4206C23.3748 17.9483 23.5485 17.1931 23.5485 16.1853V15.398C23.5485 14.8003 23.4852 14.3279 23.3748 13.9659C23.2643 13.6039 23.0757 13.289 22.8076 13.0061C22.5245 12.7384 22.2093 12.5498 21.8308 12.4235C21.4524 12.3132 20.9796 12.25 20.3973 12.25V12.2509Z" fill="#272525"/>
</g>
</svg>
