<svg width="45" height="45" viewBox="0 0 45 45" fill="none" xmlns="http://www.w3.org/2000/svg">
<mask id="path-1-inside-1_58_53" fill="white">
<path fill-rule="evenodd" clip-rule="evenodd" d="M22.5 45C34.9264 45 45 34.9264 45 22.5C45 10.0736 34.9264 0 22.5 0C10.0736 0 0 10.0736 0 22.5C0 34.9264 10.0736 45 22.5 45ZM18.0412 7.92023C17.4449 7.34519 16.4953 7.36246 15.9202 7.9588C15.3452 8.55513 15.3625 9.50473 15.9588 10.0798L28.839 22.5L15.9588 34.9202C15.3625 35.4953 15.3452 36.4449 15.9202 37.0412C16.4953 37.6375 17.4449 37.6548 18.0412 37.0798L32.0412 23.5798L33.161 22.5L32.0412 21.4202L18.0412 7.92023Z"/>
</mask>
<path fill-rule="evenodd" clip-rule="evenodd" d="M22.5 45C34.9264 45 45 34.9264 45 22.5C45 10.0736 34.9264 0 22.5 0C10.0736 0 0 10.0736 0 22.5C0 34.9264 10.0736 45 22.5 45ZM18.0412 7.92023C17.4449 7.34519 16.4953 7.36246 15.9202 7.9588C15.3452 8.55513 15.3625 9.50473 15.9588 10.0798L28.839 22.5L15.9588 34.9202C15.3625 35.4953 15.3452 36.4449 15.9202 37.0412C16.4953 37.6375 17.4449 37.6548 18.0412 37.0798L32.0412 23.5798L33.161 22.5L32.0412 21.4202L18.0412 7.92023Z" fill="#DFBD38"/>
<path d="M15.9202 7.9588L16.6401 8.65293V8.65293L15.9202 7.9588ZM18.0412 7.92023L17.3471 8.64008L18.0412 7.92023ZM15.9588 10.0798L15.2647 10.7996L15.9588 10.0798ZM28.839 22.5L29.5332 23.2198L30.2797 22.5L29.5332 21.7802L28.839 22.5ZM15.9588 34.9202L16.6529 35.6401L15.9588 34.9202ZM15.9202 37.0412L16.6401 36.3471L15.9202 37.0412ZM18.0412 37.0798L17.3471 36.3599H17.3471L18.0412 37.0798ZM32.0412 23.5798L31.3471 22.8599L32.0412 23.5798ZM33.161 22.5L33.8551 23.2198L34.6016 22.5L33.8551 21.7802L33.161 22.5ZM32.0412 21.4202L32.7353 20.7004L32.0412 21.4202ZM44 22.5C44 34.3741 34.3741 44 22.5 44V46C35.4787 46 46 35.4787 46 22.5H44ZM22.5 1C34.3741 1 44 10.6259 44 22.5H46C46 9.52131 35.4787 -1 22.5 -1V1ZM1 22.5C1 10.6259 10.6259 1 22.5 1V-1C9.52131 -1 -1 9.52131 -1 22.5H1ZM22.5 44C10.6259 44 1 34.3741 1 22.5H-1C-1 35.4787 9.52131 46 22.5 46V44ZM16.6401 8.65293C16.8318 8.45415 17.1483 8.4484 17.3471 8.64008L18.7353 7.20039C17.7414 6.24199 16.1588 6.27076 15.2004 7.26466L16.6401 8.65293ZM16.6529 9.35992C16.4542 9.16824 16.4484 8.85171 16.6401 8.65293L15.2004 7.26466C14.242 8.25856 14.2708 9.84121 15.2647 10.7996L16.6529 9.35992ZM29.5332 21.7802L16.6529 9.35992L15.2647 10.7996L28.1449 23.2198L29.5332 21.7802ZM16.6529 35.6401L29.5332 23.2198L28.1449 21.7802L15.2647 34.2004L16.6529 35.6401ZM16.6401 36.3471C16.4484 36.1483 16.4542 35.8318 16.6529 35.6401L15.2647 34.2004C14.2708 35.1588 14.242 36.7414 15.2004 37.7353L16.6401 36.3471ZM17.3471 36.3599C17.1483 36.5516 16.8318 36.5458 16.6401 36.3471L15.2004 37.7353C16.1588 38.7292 17.7414 38.758 18.7353 37.7996L17.3471 36.3599ZM31.3471 22.8599L17.3471 36.3599L18.7353 37.7996L32.7353 24.2996L31.3471 22.8599ZM32.4668 21.7802L31.3471 22.8599L32.7353 24.2996L33.8551 23.2198L32.4668 21.7802ZM31.3471 22.1401L32.4668 23.2198L33.8551 21.7802L32.7353 20.7004L31.3471 22.1401ZM17.3471 8.64008L31.3471 22.1401L32.7353 20.7004L18.7353 7.20039L17.3471 8.64008Z" fill="#272525" mask="url(#path-1-inside-1_58_53)"/>
</svg>
