<svg width="45" height="45" viewBox="0 0 45 45" fill="none" xmlns="http://www.w3.org/2000/svg">
<mask id="path-1-inside-1_58_56" fill="white">
<path fill-rule="evenodd" clip-rule="evenodd" d="M22.5 45C10.0736 45 0 34.9264 0 22.5C0 10.0736 10.0736 0 22.5 0C34.9264 0 45 10.0736 45 22.5C45 34.9264 34.9264 45 22.5 45ZM26.9588 7.92023C27.5551 7.34519 28.5047 7.36246 29.0798 7.9588C29.6548 8.55513 29.6375 9.50473 29.0412 10.0798L16.161 22.5L29.0412 34.9202C29.6375 35.4953 29.6548 36.4449 29.0798 37.0412C28.5047 37.6375 27.5551 37.6548 26.9588 37.0798L12.9588 23.5798L11.839 22.5L12.9588 21.4202L26.9588 7.92023Z"/>
</mask>
<path fill-rule="evenodd" clip-rule="evenodd" d="M22.5 45C10.0736 45 0 34.9264 0 22.5C0 10.0736 10.0736 0 22.5 0C34.9264 0 45 10.0736 45 22.5C45 34.9264 34.9264 45 22.5 45ZM26.9588 7.92023C27.5551 7.34519 28.5047 7.36246 29.0798 7.9588C29.6548 8.55513 29.6375 9.50473 29.0412 10.0798L16.161 22.5L29.0412 34.9202C29.6375 35.4953 29.6548 36.4449 29.0798 37.0412C28.5047 37.6375 27.5551 37.6548 26.9588 37.0798L12.9588 23.5798L11.839 22.5L12.9588 21.4202L26.9588 7.92023Z" fill="#DFBD38"/>
<path d="M29.0798 7.9588L28.3599 8.65293V8.65293L29.0798 7.9588ZM26.9588 7.92023L27.6529 8.64008L26.9588 7.92023ZM29.0412 10.0798L29.7353 10.7996L29.0412 10.0798ZM16.161 22.5L15.4668 23.2198L14.7203 22.5L15.4668 21.7802L16.161 22.5ZM29.0412 34.9202L28.3471 35.6401L29.0412 34.9202ZM29.0798 37.0412L28.3599 36.3471L29.0798 37.0412ZM26.9588 37.0798L27.6529 36.3599H27.6529L26.9588 37.0798ZM12.9588 23.5798L13.6529 22.8599L12.9588 23.5798ZM11.839 22.5L11.1449 23.2198L10.3984 22.5L11.1449 21.7802L11.839 22.5ZM12.9588 21.4202L12.2647 20.7004L12.9588 21.4202ZM1 22.5C1 34.3741 10.6259 44 22.5 44V46C9.52131 46 -1 35.4787 -1 22.5H1ZM22.5 1C10.6259 1 1 10.6259 1 22.5H-1C-1 9.52131 9.52131 -1 22.5 -1V1ZM44 22.5C44 10.6259 34.3741 1 22.5 1V-1C35.4787 -1 46 9.52131 46 22.5H44ZM22.5 44C34.3741 44 44 34.3741 44 22.5H46C46 35.4787 35.4787 46 22.5 46V44ZM28.3599 8.65293C28.1682 8.45415 27.8517 8.4484 27.6529 8.64008L26.2647 7.20039C27.2586 6.24199 28.8412 6.27076 29.7996 7.26466L28.3599 8.65293ZM28.3471 9.35992C28.5458 9.16824 28.5516 8.85171 28.3599 8.65293L29.7996 7.26466C30.758 8.25856 30.7292 9.84121 29.7353 10.7996L28.3471 9.35992ZM15.4668 21.7802L28.3471 9.35992L29.7353 10.7996L16.8551 23.2198L15.4668 21.7802ZM28.3471 35.6401L15.4668 23.2198L16.8551 21.7802L29.7353 34.2004L28.3471 35.6401ZM28.3599 36.3471C28.5516 36.1483 28.5458 35.8318 28.3471 35.6401L29.7353 34.2004C30.7292 35.1588 30.758 36.7414 29.7996 37.7353L28.3599 36.3471ZM27.6529 36.3599C27.8517 36.5516 28.1682 36.5458 28.3599 36.3471L29.7996 37.7353C28.8412 38.7292 27.2586 38.758 26.2647 37.7996L27.6529 36.3599ZM13.6529 22.8599L27.6529 36.3599L26.2647 37.7996L12.2647 24.2996L13.6529 22.8599ZM12.5332 21.7802L13.6529 22.8599L12.2647 24.2996L11.1449 23.2198L12.5332 21.7802ZM13.6529 22.1401L12.5332 23.2198L11.1449 21.7802L12.2647 20.7004L13.6529 22.1401ZM27.6529 8.64008L13.6529 22.1401L12.2647 20.7004L26.2647 7.20039L27.6529 8.64008Z" fill="#272525" mask="url(#path-1-inside-1_58_56)"/>
</svg>
