<svg width="38" height="31" viewBox="0 0 38 31" fill="none" xmlns="http://www.w3.org/2000/svg">
<path d="M19 2.875C16.4041 2.875 13.8665 3.64477 11.7081 5.08696C9.54975 6.52916 7.86749 8.579 6.87409 10.9773C5.88069 13.3756 5.62077 16.0146 6.1272 18.5606C6.63363 21.1066 7.88367 23.4452 9.71923 25.2808C11.5548 27.1163 13.8934 28.3664 16.4394 28.8728C18.9854 29.3792 21.6244 29.1193 24.0227 28.1259C26.421 27.1325 28.4709 25.4503 29.913 23.2919C31.3552 21.1335 32.125 18.5959 32.125 16C32.1211 12.5202 30.737 9.18413 28.2764 6.72357C25.8159 4.26301 22.4798 2.87894 19 2.875ZM19.875 27.3304V26.5C19.875 26.2679 19.7828 26.0454 19.6187 25.8813C19.4546 25.7172 19.2321 25.625 19 25.625C18.7679 25.625 18.5454 25.7172 18.3813 25.8813C18.2172 26.0454 18.125 26.2679 18.125 26.5V27.3304C15.4223 27.1194 12.8837 25.9501 10.9668 24.0332C9.04987 22.1163 7.88058 19.5777 7.66963 16.875H8.50001C8.73207 16.875 8.95463 16.7828 9.11872 16.6187C9.28282 16.4546 9.37501 16.2321 9.37501 16C9.37501 15.7679 9.28282 15.5454 9.11872 15.3813C8.95463 15.2172 8.73207 15.125 8.50001 15.125H7.66963C7.88058 12.4223 9.04987 9.88373 10.9668 7.9668C12.8837 6.04986 15.4223 4.88058 18.125 4.66963V5.5C18.125 5.73206 18.2172 5.95462 18.3813 6.11872C18.5454 6.28281 18.7679 6.375 19 6.375C19.2321 6.375 19.4546 6.28281 19.6187 6.11872C19.7828 5.95462 19.875 5.73206 19.875 5.5V4.66963C22.5777 4.88058 25.1163 6.04986 27.0332 7.9668C28.9501 9.88373 30.1194 12.4223 30.3304 15.125H29.5C29.2679 15.125 29.0454 15.2172 28.8813 15.3813C28.7172 15.5454 28.625 15.7679 28.625 16C28.625 16.2321 28.7172 16.4546 28.8813 16.6187C29.0454 16.7828 29.2679 16.875 29.5 16.875H30.3304C30.1194 19.5777 28.9501 22.1163 27.0332 24.0332C25.1163 25.9501 22.5777 27.1194 19.875 27.3304Z" fill="#272525"/>
<path d="M24.25 16.875H19C18.7679 16.875 18.5454 16.7828 18.3813 16.6187C18.2172 16.4546 18.125 16.2321 18.125 16V9C18.125 8.76794 18.2172 8.54538 18.3813 8.38128C18.5454 8.21719 18.7679 8.125 19 8.125C19.2321 8.125 19.4546 8.21719 19.6187 8.38128C19.7828 8.54538 19.875 8.76794 19.875 9V15.125H24.25C24.4821 15.125 24.7046 15.2172 24.8687 15.3813C25.0328 15.5454 25.125 15.7679 25.125 16C25.125 16.2321 25.0328 16.4546 24.8687 16.6187C24.7046 16.7828 24.4821 16.875 24.25 16.875Z" fill="#272525"/>
</svg>
