<svg width="40" height="40" viewBox="0 0 40 40" fill="none" xmlns="http://www.w3.org/2000/svg">
<path fill-rule="evenodd" clip-rule="evenodd" d="M38 20C38 29.9411 29.9411 38 20 38C10.0589 38 2 29.9411 2 20C2 10.0589 10.0589 2 20 2C29.9411 2 38 10.0589 38 20ZM40 20C40 31.0457 31.0457 40 20 40C8.9543 40 0 31.0457 0 20C0 8.9543 8.9543 0 20 0C31.0457 0 40 8.9543 40 20ZM6.27879 12.3025C6.09523 12.4878 5.99484 12.7383 6.0002 12.9976C6.10731 18.1602 7.46798 22.4182 10.0687 25.4C12.6888 28.4041 16.4696 30 21.1579 30H21.171H21.6784C22.2173 30 22.6543 29.5679 22.6543 29.035V24.4546C24.9427 25.0814 26.6996 26.9353 27.4761 29.3295C27.6055 29.729 27.981 30 28.4053 30H33.0241C33.328 30 33.6143 29.8601 33.7991 29.6215C33.9837 29.383 34.0454 29.073 33.9662 28.7832C33.4564 26.9187 32.5528 25.1823 31.3148 23.6885C30.4158 22.6036 29.3552 21.6645 28.1721 20.902C29.1921 20.1082 30.0922 19.17 30.8421 18.1152C31.8997 16.6275 32.6359 14.94 33.0044 13.1583C33.0631 12.8744 32.9897 12.5793 32.8043 12.3548C32.6189 12.1303 32.3414 12 32.0483 12H27.8588C27.4218 12 27.0383 12.2871 26.9197 12.7028C26.509 14.1411 25.6872 15.5259 24.6807 16.5736C24.0239 17.2572 23.3265 17.7597 22.6543 18.0579V12.9778C22.6543 12.4449 22.2173 12.0129 21.6784 12.0129H17.4759C16.9368 12.0129 16.5001 12.4449 16.5001 12.9778V22.6486C14.6319 21.5391 12.5397 18.74 12.4273 12.9593C12.4171 12.4337 11.9833 12.0129 11.4517 12.0129H6.97585C6.71356 12.0129 6.46234 12.1173 6.27879 12.3025ZM17.4758 24.0944L17.2392 25.0304C14.1973 24.2785 10.9148 20.9233 10.5123 13.9428H7.98872C8.23217 18.3413 9.48459 21.7753 11.5466 24.1395C13.6608 26.5636 16.715 27.9657 20.7026 28.0645V23.2965C20.7026 23.024 20.8191 22.7643 21.0235 22.5813C21.2278 22.3983 21.5008 22.3094 21.7752 22.3364C25.2468 22.6784 27.873 25.0432 29.0913 28.0701H31.6762C31.2245 26.9294 30.5939 25.8633 29.8052 24.9119C28.7421 23.6291 27.4162 22.5836 25.9145 21.8446L26.3494 20.9806L25.8419 20.1565C27.1835 19.3486 28.342 18.2758 29.2455 17.0053C29.9162 16.0619 30.4355 15.0245 30.7873 13.9299H28.5697C28.0274 15.4196 27.1472 16.8083 26.0959 17.9027C24.8934 19.1543 23.3762 20.1123 21.7819 20.2804C21.5067 20.3096 21.2319 20.2216 21.026 20.0386C20.8201 19.8554 20.7026 19.5947 20.7026 19.3209V13.9428H18.4517V24.0944C18.4517 24.3914 18.3132 24.672 18.0764 24.855C17.8395 25.0377 17.5307 25.1026 17.2392 25.0304L17.4759 24.0944H17.4758ZM25.8419 20.1565L26.3494 20.9806L25.9145 21.8446C25.5966 21.6879 25.3895 21.3728 25.3745 21.0217C25.3593 20.6707 25.5385 20.3393 25.8419 20.1565ZM28.4053 29.0349V29.035L27.4761 29.3295L28.4053 29.0349Z" fill="#597DA3"/>
</svg>
