<svg width="38" height="31" viewBox="0 0 38 31" fill="none" xmlns="http://www.w3.org/2000/svg">
<path d="M32.9373 22.7667C32.7639 22.3481 32.2841 22.1494 31.8655 22.3227L27.2527 24.2333C26.8341 24.4066 26.6354 24.8865 26.8087 25.3051C26.9396 25.621 27.245 25.8117 27.5669 25.8117C27.6716 25.8117 27.7779 25.7916 27.8805 25.7491L32.4933 23.8385C32.9119 23.6651 33.1107 23.1853 32.9373 22.7667Z" fill="#272525"/>
<path d="M23.0535 26.861C22.8801 26.4425 22.4004 26.2437 21.9817 26.417L17.3689 28.3278C16.9503 28.5012 16.7516 28.981 16.925 29.3996C17.0558 29.7155 17.3613 29.9062 17.6831 29.9062C17.7877 29.9062 17.8941 29.8861 17.9967 29.8435L22.6096 27.9329C23.0281 27.7595 23.2268 27.2796 23.0535 26.861Z" fill="#272525"/>
<path d="M32.9373 15.3111C32.764 14.8926 32.2841 14.6939 31.8655 14.8672L28.1599 16.4021L22.8412 2.52669C22.7196 2.20945 22.415 2 22.0753 2C21.7355 2 21.4309 2.20945 21.3093 2.52669L16.865 14.1205L14.4963 7.80409C14.3762 7.48395 14.0702 7.27181 13.7282 7.27181C13.3863 7.27181 13.0802 7.48395 12.9601 7.80409L6.3477 25.4371L5.50661 25.7855C5.08803 25.9589 4.88929 26.4388 5.06265 26.8573C5.19352 27.1732 5.49895 27.364 5.82084 27.364C5.92546 27.364 6.03177 27.3438 6.13442 27.3013L32.4933 16.383C32.912 16.2095 33.1107 15.7297 32.9373 15.3111ZM22.0752 5.1121L24.08 10.3422H20.0703L22.0752 5.1121ZM13.6932 22.3945L8.4221 24.5779L11.1684 17.2544H15.6636L13.6932 22.3945ZM11.7836 15.6138L13.7282 10.4283L15.6727 15.6138H11.7836ZM18.5822 20.3694L15.7819 21.5294L19.4415 11.9828H24.7089L26.6437 17.0303L18.5822 20.3694Z" fill="#272525"/>
</svg>
