<svg width="42" height="42" viewBox="0 0 42 42" fill="none" xmlns="http://www.w3.org/2000/svg">
<mask id="path-1-outside-1_20_582" maskUnits="userSpaceOnUse" x="0" y="0" width="42" height="42" fill="black">
<rect fill="white" width="42" height="42"/>
<path fill-rule="evenodd" clip-rule="evenodd" d="M1.26487 20.7351C1.26487 9.87416 10.1391 1 21.0662 1C32.0596 1 41 9.87416 41 20.7351C41 31.5959 31.8609 40.7351 21.0662 40.7351C18.0198 40.7351 14.7748 39.808 11.6622 38.1523L1 41L3.9139 30.5365C2.19204 27.4901 1.26487 24.1788 1.26487 20.7351ZM12.0596 36.8279C15.0397 38.4835 18.1523 39.4106 21.0662 39.4106C31.1325 39.4106 39.6755 30.8676 39.6755 20.7351C39.6755 10.6027 31.3311 2.32451 21.0662 2.32451C10.8675 2.32451 2.58938 10.6027 2.58938 20.7351C2.58938 23.9802 3.51647 27.2252 5.17213 30.0729L5.30461 30.3378L2.85433 39.1457L11.7947 36.6954L12.0596 36.8279ZM28.6852 21.8047L33.7622 24.0968C34.4069 24.4129 34.8098 25.1242 34.6487 25.8356L34.4069 26.9422C34.0845 28.3649 33.1981 29.7085 31.9087 30.4989C30.7805 31.1311 29.4911 31.5263 28.1211 31.5263C27.3959 31.5263 26.5899 31.4473 25.7841 31.2102C17.7255 28.9972 13.5349 23.3855 12.165 21.4887C9.90848 18.4853 9.0221 15.4028 9.58617 12.7946C9.98913 10.9767 11.3591 9.63306 12.0844 9.00074C12.5679 8.52653 13.2932 8.36842 13.9379 8.36842L15.4691 8.44743C16.1138 8.44743 16.5973 8.84264 16.8391 9.39586L19.0149 14.4542C19.2567 15.0075 19.1761 15.6398 18.7732 16.114L17.0002 18.169C19.3372 22.437 23.3665 24.1759 24.8171 24.7291L26.7512 22.2789C27.2347 21.7257 27.9599 21.4886 28.6852 21.8047ZM30.9416 29.076C31.8281 28.5228 32.4728 27.5743 32.7145 26.5469L33.0369 25.4404L27.9599 23.1483L26.0259 25.6775C25.6229 26.1517 25.0588 26.3098 24.4947 26.1517C23.0441 25.6775 18.2089 23.7016 15.5496 18.6432C15.3078 18.1689 15.3884 17.5366 15.7108 17.1414L17.6448 15.0075L15.469 10.0281L13.8573 9.86998C13.6155 9.86998 13.3737 9.94899 13.2125 10.1071C12.5678 10.6603 11.5201 11.6878 11.1978 13.1105C10.7143 15.2445 11.5202 17.9318 13.4543 20.54C14.7436 22.2788 18.6924 27.5743 26.187 29.6293C27.9598 30.1035 29.5716 29.9455 30.9416 29.076Z"/>
</mask>
<path fill-rule="evenodd" clip-rule="evenodd" d="M1.26487 20.7351C1.26487 9.87416 10.1391 1 21.0662 1C32.0596 1 41 9.87416 41 20.7351C41 31.5959 31.8609 40.7351 21.0662 40.7351C18.0198 40.7351 14.7748 39.808 11.6622 38.1523L1 41L3.9139 30.5365C2.19204 27.4901 1.26487 24.1788 1.26487 20.7351ZM12.0596 36.8279C15.0397 38.4835 18.1523 39.4106 21.0662 39.4106C31.1325 39.4106 39.6755 30.8676 39.6755 20.7351C39.6755 10.6027 31.3311 2.32451 21.0662 2.32451C10.8675 2.32451 2.58938 10.6027 2.58938 20.7351C2.58938 23.9802 3.51647 27.2252 5.17213 30.0729L5.30461 30.3378L2.85433 39.1457L11.7947 36.6954L12.0596 36.8279ZM28.6852 21.8047L33.7622 24.0968C34.4069 24.4129 34.8098 25.1242 34.6487 25.8356L34.4069 26.9422C34.0845 28.3649 33.1981 29.7085 31.9087 30.4989C30.7805 31.1311 29.4911 31.5263 28.1211 31.5263C27.3959 31.5263 26.5899 31.4473 25.7841 31.2102C17.7255 28.9972 13.5349 23.3855 12.165 21.4887C9.90848 18.4853 9.0221 15.4028 9.58617 12.7946C9.98913 10.9767 11.3591 9.63306 12.0844 9.00074C12.5679 8.52653 13.2932 8.36842 13.9379 8.36842L15.4691 8.44743C16.1138 8.44743 16.5973 8.84264 16.8391 9.39586L19.0149 14.4542C19.2567 15.0075 19.1761 15.6398 18.7732 16.114L17.0002 18.169C19.3372 22.437 23.3665 24.1759 24.8171 24.7291L26.7512 22.2789C27.2347 21.7257 27.9599 21.4886 28.6852 21.8047ZM30.9416 29.076C31.8281 28.5228 32.4728 27.5743 32.7145 26.5469L33.0369 25.4404L27.9599 23.1483L26.0259 25.6775C25.6229 26.1517 25.0588 26.3098 24.4947 26.1517C23.0441 25.6775 18.2089 23.7016 15.5496 18.6432C15.3078 18.1689 15.3884 17.5366 15.7108 17.1414L17.6448 15.0075L15.469 10.0281L13.8573 9.86998C13.6155 9.86998 13.3737 9.94899 13.2125 10.1071C12.5678 10.6603 11.5201 11.6878 11.1978 13.1105C10.7143 15.2445 11.5202 17.9318 13.4543 20.54C14.7436 22.2788 18.6924 27.5743 26.187 29.6293C27.9598 30.1035 29.5716 29.9455 30.9416 29.076Z" fill="#119F63"/>
<path d="M11.6622 38.1523L11.8501 37.7992L11.7111 37.7252L11.559 37.7659L11.6622 38.1523ZM1 41L0.614663 40.8927L0.426853 41.5671L1.10322 41.3865L1 41ZM3.9139 30.5365L4.29923 30.6438L4.34372 30.484L4.26212 30.3396L3.9139 30.5365ZM12.0596 36.8279L12.2538 36.4782L12.2462 36.474L12.2385 36.4701L12.0596 36.8279ZM5.17213 30.0729L5.52988 29.894L5.52425 29.8827L5.51793 29.8719L5.17213 30.0729ZM5.30461 30.3378L5.68997 30.445L5.73125 30.2966L5.66235 30.1589L5.30461 30.3378ZM2.85433 39.1457L2.46897 39.0385L2.27997 39.7178L2.96006 39.5314L2.85433 39.1457ZM11.7947 36.6954L11.9736 36.3376L11.8367 36.2691L11.689 36.3096L11.7947 36.6954ZM33.7622 24.0968L33.9384 23.7374L33.9268 23.7322L33.7622 24.0968ZM28.6852 21.8047L28.8498 21.4401L28.845 21.438L28.6852 21.8047ZM34.6487 25.8356L34.2586 25.7473L34.2579 25.7502L34.6487 25.8356ZM34.4069 26.9422L34.7971 27.0306L34.7977 27.0275L34.4069 26.9422ZM31.9087 30.4989L32.1042 30.8478L32.1111 30.844L32.1177 30.8399L31.9087 30.4989ZM25.7841 31.2102L25.897 30.8264L25.89 30.8245L25.7841 31.2102ZM12.165 21.4887L12.4893 21.2544L12.4848 21.2484L12.165 21.4887ZM9.58617 12.7946L9.19564 12.708L9.19521 12.71L9.58617 12.7946ZM12.0844 9.00074L12.3473 9.30225L12.3561 9.29453L12.3645 9.28632L12.0844 9.00074ZM13.9379 8.36842L13.9585 7.96895L13.9482 7.96842H13.9379V8.36842ZM15.4691 8.44743L15.4485 8.84689L15.4588 8.84743H15.4691V8.44743ZM16.8391 9.39586L17.2065 9.2378L17.2056 9.23569L16.8391 9.39586ZM19.0149 14.4542L18.6475 14.6123L18.6484 14.6144L19.0149 14.4542ZM18.7732 16.114L19.076 16.3753L19.078 16.373L18.7732 16.114ZM17.0002 18.169L16.6973 17.9077L16.5161 18.1177L16.6493 18.3611L17.0002 18.169ZM24.8171 24.7291L24.6745 25.1028L24.949 25.2075L25.1311 24.9769L24.8171 24.7291ZM26.7512 22.2789L26.45 22.0157L26.4434 22.0232L26.4372 22.0311L26.7512 22.2789ZM32.7145 26.5469L32.3305 26.435L32.3276 26.445L32.3252 26.4552L32.7145 26.5469ZM30.9416 29.076L30.7298 28.7367L30.7273 28.7383L30.9416 29.076ZM33.0369 25.4404L33.421 25.5523L33.5182 25.2188L33.2015 25.0758L33.0369 25.4404ZM27.9599 23.1483L28.1245 22.7838L27.8351 22.6531L27.6422 22.9054L27.9599 23.1483ZM26.0259 25.6775L26.3307 25.9365L26.3374 25.9287L26.3436 25.9205L26.0259 25.6775ZM24.4947 26.1517L24.3704 26.5319L24.3785 26.5346L24.3867 26.5369L24.4947 26.1517ZM15.5496 18.6432L15.1932 18.8248L15.1955 18.8293L15.5496 18.6432ZM15.7108 17.1414L15.4144 16.8728L15.4074 16.8805L15.4008 16.8886L15.7108 17.1414ZM17.6448 15.0075L17.9412 15.2761L18.115 15.0844L18.0114 14.8473L17.6448 15.0075ZM15.469 10.0281L15.8355 9.86792L15.7416 9.6529L15.5081 9.63L15.469 10.0281ZM13.8573 9.86998L13.8963 9.47189L13.8768 9.46998H13.8573V9.86998ZM13.2125 10.1071L13.473 10.4107L13.4831 10.402L13.4926 10.3927L13.2125 10.1071ZM11.1978 13.1105L11.5879 13.1989L11.5879 13.1989L11.1978 13.1105ZM13.4543 20.54L13.7756 20.3017L13.7756 20.3017L13.4543 20.54ZM26.187 29.6293L26.0812 30.015L26.0836 30.0157L26.187 29.6293ZM21.0662 0.6C9.91907 0.6 0.864871 9.65237 0.864871 20.7351H1.66487C1.66487 10.0959 10.3592 1.4 21.0662 1.4V0.6ZM41.4 20.7351C41.4 9.64978 32.277 0.6 21.0662 0.6V1.4C31.8421 1.4 40.6 10.0985 40.6 20.7351H41.4ZM21.0662 41.1351C32.0827 41.1351 41.4 31.816 41.4 20.7351H40.6C40.6 31.3759 31.6391 40.3351 21.0662 40.3351V41.1351ZM11.4744 38.5055C14.6314 40.1847 17.9407 41.1351 21.0662 41.1351V40.3351C18.099 40.3351 14.9182 39.4312 11.8501 37.7992L11.4744 38.5055ZM1.10322 41.3865L11.7654 38.5388L11.559 37.7659L0.896785 40.6135L1.10322 41.3865ZM3.52856 30.4291L0.614663 40.8927L1.38534 41.1073L4.29923 30.6438L3.52856 30.4291ZM0.864871 20.7351C0.864871 24.2527 1.81237 27.6313 3.56567 30.7333L4.26212 30.3396C2.57171 27.3489 1.66487 24.105 1.66487 20.7351H0.864871ZM21.0662 39.0106C18.235 39.0106 15.189 38.1088 12.2538 36.4782L11.8653 37.1775C14.8905 38.8581 18.0696 39.8106 21.0662 39.8106V39.0106ZM39.2755 20.7351C39.2755 30.6476 30.9106 39.0106 21.0662 39.0106V39.8106C31.3543 39.8106 40.0755 31.0876 40.0755 20.7351H39.2755ZM21.0662 2.72451C31.1139 2.72451 39.2755 10.8273 39.2755 20.7351H40.0755C40.0755 10.378 31.5482 1.92451 21.0662 1.92451V2.72451ZM2.98938 20.7351C2.98938 10.8245 11.0875 2.72451 21.0662 2.72451V1.92451C10.6475 1.92451 2.18938 10.3808 2.18938 20.7351H2.98938ZM5.51793 29.8719C3.89531 27.081 2.98938 23.9048 2.98938 20.7351H2.18938C2.18938 24.0555 3.13763 27.3694 4.82633 30.274L5.51793 29.8719ZM5.66235 30.1589L5.52988 29.894L4.81438 30.2518L4.94686 30.5167L5.66235 30.1589ZM3.2397 39.2529L5.68997 30.445L4.91924 30.2306L2.46897 39.0385L3.2397 39.2529ZM11.689 36.3096L2.7486 38.7599L2.96006 39.5314L11.9004 37.0812L11.689 36.3096ZM12.2385 36.4701L11.9736 36.3376L11.6158 37.0531L11.8806 37.1856L12.2385 36.4701ZM33.9268 23.7322L28.8498 21.4401L28.5206 22.1693L33.5976 24.4613L33.9268 23.7322ZM35.0388 25.924C35.2465 25.0071 34.7255 24.1236 33.9383 23.7376L33.5861 24.4559C34.0884 24.7022 34.3731 25.2414 34.2586 25.7473L35.0388 25.924ZM34.7977 27.0275L35.0395 25.921L34.2579 25.7502L34.0162 26.8568L34.7977 27.0275ZM32.1177 30.8399C33.5076 29.9881 34.4531 28.5484 34.797 27.0306L34.0168 26.8538C33.716 28.1814 32.8887 29.429 31.6997 30.1578L32.1177 30.8399ZM28.1211 31.9263C29.5691 31.9263 30.9251 31.5086 32.1042 30.8478L31.7132 30.1499C30.6358 30.7537 29.4132 31.1263 28.1211 31.1263V31.9263ZM25.6712 31.5939C26.5224 31.8444 27.368 31.9263 28.1211 31.9263V31.1263C27.4238 31.1263 26.6575 31.0502 25.897 30.8265L25.6712 31.5939ZM11.8407 21.7229C13.2245 23.6389 17.4833 29.3455 25.6782 31.5959L25.89 30.8245C17.9676 28.6489 13.8453 23.1321 12.4892 21.2545L11.8407 21.7229ZM9.19521 12.71C8.59854 15.4689 9.54567 18.6683 11.8452 21.7289L12.4848 21.2484C10.2713 18.3022 9.44566 15.3366 9.97713 12.8791L9.19521 12.71ZM11.8215 8.69924C11.0858 9.34072 9.62817 10.7568 9.19565 12.708L9.97669 12.8811C10.3501 11.1966 11.6325 9.9254 12.3473 9.30225L11.8215 8.69924ZM13.9379 7.96842C13.2462 7.96842 12.3956 8.13522 11.8043 8.71517L12.3645 9.28632C12.7402 8.91784 13.3401 8.76842 13.9379 8.76842V7.96842ZM15.4897 8.04796L13.9585 7.96895L13.9173 8.76789L15.4485 8.84689L15.4897 8.04796ZM17.2056 9.23569C16.9129 8.56575 16.3022 8.04743 15.4691 8.04743V8.84743C15.9255 8.84743 16.2818 9.11953 16.4726 9.55603L17.2056 9.23569ZM19.3824 14.2962L17.2065 9.23781L16.4716 9.55392L18.6475 14.6123L19.3824 14.2962ZM19.078 16.373C19.5825 15.7792 19.6828 14.9836 19.3814 14.2941L18.6484 14.6144C18.8306 15.0313 18.7697 15.5003 18.4683 15.855L19.078 16.373ZM17.3031 18.4303L19.076 16.3753L18.4703 15.8527L16.6973 17.9077L17.3031 18.4303ZM24.9596 24.3553C23.5336 23.8115 19.6177 22.1164 17.351 17.9769L16.6493 18.3611C19.0567 22.7576 23.1995 24.5402 24.6745 25.1028L24.9596 24.3553ZM26.4372 22.0311L24.5031 24.4813L25.1311 24.9769L27.0651 22.5267L26.4372 22.0311ZM28.845 21.438C27.936 21.0418 27.03 21.352 26.45 22.0157L27.0523 22.5421C27.4393 22.0994 27.9838 21.9353 28.5254 22.1714L28.845 21.438ZM32.3252 26.4552C32.1056 27.3882 31.5197 28.2437 30.7298 28.7367L31.1534 29.4154C32.1364 28.8019 32.8399 27.7604 33.1039 26.6385L32.3252 26.4552ZM32.6529 25.3285L32.3305 26.435L33.0986 26.6588L33.421 25.5523L32.6529 25.3285ZM27.7954 23.5129L32.8724 25.805L33.2015 25.0758L28.1245 22.7838L27.7954 23.5129ZM26.3436 25.9205L28.2777 23.3913L27.6422 22.9054L25.7081 25.4345L26.3436 25.9205ZM24.3867 26.5369C25.0991 26.7366 25.8251 26.5315 26.3307 25.9365L25.7211 25.4185C25.4207 25.772 25.0184 25.8831 24.6026 25.7666L24.3867 26.5369ZM15.1955 18.8293C17.9264 24.0238 22.8813 26.0451 24.3704 26.5319L24.619 25.7715C23.207 25.3099 18.4914 23.3793 15.9036 18.457L15.1955 18.8293ZM15.4008 16.8886C14.9809 17.4035 14.8776 18.2056 15.1932 18.8248L15.9059 18.4615C15.738 18.1321 15.796 17.6698 16.0207 17.3942L15.4008 16.8886ZM17.3484 14.7388L15.4144 16.8728L16.0071 17.41L17.9412 15.2761L17.3484 14.7388ZM15.1025 10.1882L17.2783 15.1676L18.0114 14.8473L15.8355 9.86792L15.1025 10.1882ZM13.8182 10.2681L15.43 10.4262L15.5081 9.63L13.8963 9.47189L13.8182 10.2681ZM13.4926 10.3927C13.5614 10.3252 13.6927 10.27 13.8573 10.27V9.46998C13.5383 9.46998 13.186 9.57281 12.9325 9.82152L13.4926 10.3927ZM11.5879 13.1989C11.8801 11.9092 12.8403 10.9536 13.473 10.4107L12.9521 9.80353C12.2953 10.3671 11.1602 11.4665 10.8077 13.0221L11.5879 13.1989ZM13.7756 20.3017C11.878 17.7427 11.1403 15.1745 11.5879 13.1989L10.8077 13.0221C10.2883 15.3145 11.1625 18.1208 13.133 20.7782L13.7756 20.3017ZM26.2928 29.2435C18.9352 27.2261 15.055 22.0272 13.7756 20.3017L13.133 20.7782C14.4322 22.5304 18.4496 27.9225 26.0812 30.015L26.2928 29.2435ZM30.7273 28.7383C29.4708 29.5357 27.9792 29.6946 26.2903 29.2428L26.0836 30.0157C27.9405 30.5124 29.6724 30.3553 31.1559 29.4138L30.7273 28.7383Z" fill="#119F63" mask="url(#path-1-outside-1_20_582)"/>
</svg>
