<svg width="60" height="60" viewBox="0 0 60 60" fill="none" xmlns="http://www.w3.org/2000/svg">
<mask id="path-1-outside-1_851_11" maskUnits="userSpaceOnUse" x="8" y="7" width="46" height="46" fill="black">
<rect fill="white" x="8" y="7" width="46" height="46"/>
<path fill-rule="evenodd" clip-rule="evenodd" d="M9.29136 29.7086C9.29136 17.7616 19.053 8 31.0728 8C43.1655 8 53 17.7616 53 29.7086C53 41.6555 42.947 51.7086 31.0728 51.7086C27.7218 51.7086 24.1523 50.6888 20.7284 48.8675L9 52L12.2053 40.4901C10.3112 37.1391 9.29136 33.4967 9.29136 29.7086ZM21.1655 47.4107C24.4437 49.2318 27.8675 50.2517 31.0728 50.2517C42.1457 50.2517 51.543 40.8544 51.543 29.7086C51.543 18.5629 42.3642 9.45696 31.0728 9.45696C19.8543 9.45696 10.7483 18.5629 10.7483 29.7086C10.7483 33.2782 11.7681 36.8477 13.5893 39.9802L13.7351 40.2716L11.0398 49.9602L20.8742 47.2649L21.1655 47.4107ZM39.4527 30.8854L45.0374 33.4067C45.7466 33.7544 46.1898 34.5369 46.0126 35.3195L45.7466 36.5367C45.392 38.1017 44.417 39.5797 42.9986 40.4491C41.7575 41.1445 40.3392 41.5792 38.8323 41.5792C38.0345 41.5792 37.1479 41.4923 36.2615 41.2315C27.397 38.7972 22.7874 32.6244 21.2804 30.5378C18.7983 27.2341 17.8233 23.8433 18.4438 20.9743C18.887 18.9747 20.394 17.4967 21.1918 16.8011C21.7237 16.2795 22.5215 16.1055 23.2307 16.1055L24.915 16.1925C25.6242 16.1925 26.1561 16.6272 26.422 17.2357L28.8154 22.7999C29.0813 23.4085 28.9927 24.104 28.5495 24.6257L26.5992 26.8861C29.1699 31.581 33.6022 33.4937 35.1978 34.1023L37.3253 31.4071C37.8571 30.7985 38.6549 30.5377 39.4527 30.8854ZM41.9347 38.8839C42.9099 38.2754 43.6191 37.232 43.885 36.1018L44.2396 34.8847L38.6549 32.3635L36.5275 35.1456C36.0842 35.6672 35.4636 35.8411 34.8431 35.6672C33.2475 35.1456 27.9288 32.972 25.0035 27.4078C24.7376 26.886 24.8263 26.1906 25.1808 25.7559L27.3083 23.4085L24.9149 17.9312L23.142 17.7573C22.876 17.7573 22.6101 17.8442 22.4328 18.0181C21.7236 18.6266 20.5711 19.7569 20.2166 21.3218C19.6847 23.6692 20.5712 26.6252 22.6987 29.4942C24.117 31.407 28.4606 37.232 36.7047 39.4925C38.6548 40.0141 40.4277 39.8403 41.9347 38.8839Z"/>
</mask>
<path fill-rule="evenodd" clip-rule="evenodd" d="M9.29136 29.7086C9.29136 17.7616 19.053 8 31.0728 8C43.1655 8 53 17.7616 53 29.7086C53 41.6555 42.947 51.7086 31.0728 51.7086C27.7218 51.7086 24.1523 50.6888 20.7284 48.8675L9 52L12.2053 40.4901C10.3112 37.1391 9.29136 33.4967 9.29136 29.7086ZM21.1655 47.4107C24.4437 49.2318 27.8675 50.2517 31.0728 50.2517C42.1457 50.2517 51.543 40.8544 51.543 29.7086C51.543 18.5629 42.3642 9.45696 31.0728 9.45696C19.8543 9.45696 10.7483 18.5629 10.7483 29.7086C10.7483 33.2782 11.7681 36.8477 13.5893 39.9802L13.7351 40.2716L11.0398 49.9602L20.8742 47.2649L21.1655 47.4107ZM39.4527 30.8854L45.0374 33.4067C45.7466 33.7544 46.1898 34.5369 46.0126 35.3195L45.7466 36.5367C45.392 38.1017 44.417 39.5797 42.9986 40.4491C41.7575 41.1445 40.3392 41.5792 38.8323 41.5792C38.0345 41.5792 37.1479 41.4923 36.2615 41.2315C27.397 38.7972 22.7874 32.6244 21.2804 30.5378C18.7983 27.2341 17.8233 23.8433 18.4438 20.9743C18.887 18.9747 20.394 17.4967 21.1918 16.8011C21.7237 16.2795 22.5215 16.1055 23.2307 16.1055L24.915 16.1925C25.6242 16.1925 26.1561 16.6272 26.422 17.2357L28.8154 22.7999C29.0813 23.4085 28.9927 24.104 28.5495 24.6257L26.5992 26.8861C29.1699 31.581 33.6022 33.4937 35.1978 34.1023L37.3253 31.4071C37.8571 30.7985 38.6549 30.5377 39.4527 30.8854ZM41.9347 38.8839C42.9099 38.2754 43.6191 37.232 43.885 36.1018L44.2396 34.8847L38.6549 32.3635L36.5275 35.1456C36.0842 35.6672 35.4636 35.8411 34.8431 35.6672C33.2475 35.1456 27.9288 32.972 25.0035 27.4078C24.7376 26.886 24.8263 26.1906 25.1808 25.7559L27.3083 23.4085L24.9149 17.9312L23.142 17.7573C22.876 17.7573 22.6101 17.8442 22.4328 18.0181C21.7236 18.6266 20.5711 19.7569 20.2166 21.3218C19.6847 23.6692 20.5712 26.6252 22.6987 29.4942C24.117 31.407 28.4606 37.232 36.7047 39.4925C38.6548 40.0141 40.4277 39.8403 41.9347 38.8839Z" fill="#272525"/>
<path d="M20.7284 48.8675L20.9163 48.5144L20.7773 48.4405L20.6252 48.4811L20.7284 48.8675ZM9 52L8.61466 51.8927L8.42685 52.5671L9.10322 52.3865L9 52ZM12.2053 40.4901L12.5906 40.5974L12.6351 40.4377L12.5535 40.2933L12.2053 40.4901ZM21.1655 47.4107L21.3598 47.061L21.3522 47.0568L21.3444 47.0529L21.1655 47.4107ZM13.5893 39.9802L13.9471 39.8013L13.9415 39.79L13.9351 39.7792L13.5893 39.9802ZM13.7351 40.2716L14.1204 40.3788L14.1617 40.2304L14.0928 40.0926L13.7351 40.2716ZM11.0398 49.9602L10.6544 49.853L10.4654 50.5324L11.1455 50.346L11.0398 49.9602ZM20.8742 47.2649L21.0531 46.9072L20.9161 46.8387L20.7684 46.8792L20.8742 47.2649ZM45.0374 33.4067L45.2136 33.0474L45.202 33.0422L45.0374 33.4067ZM39.4527 30.8854L39.6173 30.5208L39.6125 30.5188L39.4527 30.8854ZM46.0126 35.3195L45.6224 35.2311L45.6218 35.2341L46.0126 35.3195ZM45.7466 36.5367L46.1367 36.6251L46.1374 36.622L45.7466 36.5367ZM42.9986 40.4491L43.1941 40.798L43.2009 40.7942L43.2076 40.7901L42.9986 40.4491ZM36.2615 41.2315L36.3745 40.8477L36.3675 40.8458L36.2615 41.2315ZM21.2804 30.5378L21.6048 30.3036L21.6002 30.2976L21.2804 30.5378ZM18.4438 20.9743L18.0533 20.8877L18.0528 20.8898L18.4438 20.9743ZM21.1918 16.8011L21.4547 17.1026L21.4635 17.0949L21.4719 17.0867L21.1918 16.8011ZM23.2307 16.1055L23.2513 15.7061L23.241 15.7055H23.2307V16.1055ZM24.915 16.1925L24.8944 16.5919L24.9047 16.5925H24.915V16.1925ZM26.422 17.2357L26.7895 17.0777L26.7885 17.0756L26.422 17.2357ZM28.8154 22.7999L28.4479 22.958L28.4489 22.9601L28.8154 22.7999ZM28.5495 24.6257L28.8523 24.887L28.8543 24.8847L28.5495 24.6257ZM26.5992 26.8861L26.2964 26.6248L26.1151 26.8349L26.2484 27.0783L26.5992 26.8861ZM35.1978 34.1023L35.0553 34.476L35.3297 34.5807L35.5118 34.3501L35.1978 34.1023ZM37.3253 31.4071L37.0241 31.1438L37.0175 31.1514L37.0113 31.1592L37.3253 31.4071ZM43.885 36.1018L43.501 35.9899L43.498 36L43.4956 36.0102L43.885 36.1018ZM41.9347 38.8839L41.723 38.5446L41.7204 38.5462L41.9347 38.8839ZM44.2396 34.8847L44.6237 34.9966L44.7209 34.6631L44.4042 34.5202L44.2396 34.8847ZM38.6549 32.3635L38.8195 31.9989L38.5301 31.8682L38.3372 32.1205L38.6549 32.3635ZM36.5275 35.1456L36.8323 35.4046L36.8389 35.3967L36.8452 35.3885L36.5275 35.1456ZM34.8431 35.6672L34.7189 36.0474L34.727 36.05L34.7352 36.0523L34.8431 35.6672ZM25.0035 27.4078L24.6471 27.5894L24.6495 27.5939L25.0035 27.4078ZM25.1808 25.7559L24.8844 25.4872L24.8774 25.495L24.8708 25.5031L25.1808 25.7559ZM27.3083 23.4085L27.6047 23.6771L27.7784 23.4854L27.6748 23.2483L27.3083 23.4085ZM24.9149 17.9312L25.2814 17.771L25.1875 17.556L24.9539 17.5331L24.9149 17.9312ZM23.142 17.7573L23.181 17.3592L23.1615 17.3573H23.142V17.7573ZM22.4328 18.0181L22.6933 18.3216L22.7034 18.313L22.7129 18.3037L22.4328 18.0181ZM20.2166 21.3218L20.6067 21.4102L20.6067 21.4102L20.2166 21.3218ZM22.6987 29.4942L23.02 29.256L23.02 29.256L22.6987 29.4942ZM36.7047 39.4925L36.5989 39.8782L36.6013 39.8789L36.7047 39.4925ZM31.0728 7.6C18.833 7.6 8.89136 17.5398 8.89136 29.7086H9.69136C9.69136 17.9834 19.2731 8.4 31.0728 8.4V7.6ZM53.4 29.7086C53.4 17.5372 43.3829 7.6 31.0728 7.6V8.4C42.9481 8.4 52.6 17.986 52.6 29.7086H53.4ZM31.0728 52.1086C43.1688 52.1086 53.4 41.8756 53.4 29.7086H52.6C52.6 41.4355 42.7252 51.3086 31.0728 51.3086V52.1086ZM20.5406 49.2207C24.0088 51.0655 27.6426 52.1086 31.0728 52.1086V51.3086C27.801 51.3086 24.2957 50.312 20.9163 48.5144L20.5406 49.2207ZM9.10322 52.3865L20.8317 49.254L20.6252 48.4811L8.89678 51.6135L9.10322 52.3865ZM11.8199 40.3828L8.61466 51.8927L9.38534 52.1073L12.5906 40.5974L11.8199 40.3828ZM8.89136 29.7086C8.89136 33.5706 9.93157 37.2803 11.8571 40.6869L12.5535 40.2933C10.6909 36.9979 9.69136 33.4229 9.69136 29.7086H8.89136ZM31.0728 49.8517C27.9503 49.8517 24.5929 48.8571 21.3598 47.061L20.9713 47.7603C24.2945 49.6065 27.7848 50.6517 31.0728 50.6517V49.8517ZM51.143 29.7086C51.143 40.6344 41.9239 49.8517 31.0728 49.8517V50.6517C42.3676 50.6517 51.943 41.0744 51.943 29.7086H51.143ZM31.0728 9.85696C42.147 9.85696 51.143 18.7875 51.143 29.7086H51.943C51.943 18.3383 42.5814 9.05696 31.0728 9.05696V9.85696ZM11.1483 29.7086C11.1483 18.7848 20.0743 9.85696 31.0728 9.85696V9.05696C19.6343 9.05696 10.3483 18.3411 10.3483 29.7086H11.1483ZM13.9351 39.7792C12.147 36.7035 11.1483 33.2028 11.1483 29.7086H10.3483C10.3483 33.3535 11.3893 36.992 13.2435 40.1813L13.9351 39.7792ZM14.0928 40.0926L13.9471 39.8013L13.2316 40.1591L13.3773 40.4505L14.0928 40.0926ZM11.4251 50.0674L14.1204 40.3788L13.3497 40.1644L10.6544 49.853L11.4251 50.0674ZM20.7684 46.8792L10.934 49.5745L11.1455 50.346L20.9799 47.6507L20.7684 46.8792ZM21.3444 47.0529L21.0531 46.9072L20.6952 47.6227L20.9866 47.7684L21.3444 47.0529ZM45.202 33.0422L39.6173 30.5209L39.2881 31.25L44.8728 33.7713L45.202 33.0422ZM46.4027 35.4078C46.6264 34.4198 46.0652 33.4651 45.2135 33.0476L44.8613 33.7659C45.4281 34.0438 45.7531 34.6541 45.6224 35.2311L46.4027 35.4078ZM46.1374 36.622L46.4033 35.4048L45.6218 35.2341L45.3558 36.4513L46.1374 36.622ZM43.2076 40.7901C44.7264 39.8592 45.7605 38.2852 46.1367 36.6251L45.3565 36.4483C45.0234 37.9181 44.1076 39.3002 42.7895 40.108L43.2076 40.7901ZM38.8323 41.9792C40.4172 41.9792 41.9022 41.522 43.1941 40.798L42.803 40.1001C41.6129 40.767 40.2613 41.1792 38.8323 41.1792V41.9792ZM36.1486 41.6152C37.0804 41.8894 38.0066 41.9792 38.8323 41.9792V41.1792C38.0624 41.1792 37.2154 41.0952 36.3744 40.8478L36.1486 41.6152ZM20.9562 30.772C22.477 32.8778 27.1549 39.1455 36.1556 41.6172L36.3675 40.8458C27.6392 38.4489 23.0978 32.371 21.6047 30.3036L20.9562 30.772ZM18.0528 20.8898C17.3997 23.9095 18.4355 27.4171 20.9606 30.7781L21.6002 30.2976C19.1611 27.0511 18.2469 23.7772 18.8347 21.0589L18.0528 20.8898ZM20.929 16.4996C20.1207 17.2043 18.5261 18.7548 18.0533 20.8877L18.8343 21.0609C19.248 19.1946 20.6674 17.789 21.4547 17.1026L20.929 16.4996ZM23.2307 15.7055C22.4745 15.7055 21.5514 15.8882 20.9117 16.5155L21.4719 17.0867C21.896 16.6708 22.5685 16.5055 23.2307 16.5055V15.7055ZM24.9356 15.793L23.2513 15.7061L23.2101 16.505L24.8944 16.5919L24.9356 15.793ZM26.7885 17.0756C26.4716 16.3503 25.8125 15.7925 24.915 15.7925V16.5925C25.4358 16.5925 25.8405 16.9041 26.0555 17.3959L26.7885 17.0756ZM29.1828 22.6419L26.7894 17.0777L26.0545 17.3938L28.4479 22.958L29.1828 22.6419ZM28.8543 24.8847C29.3991 24.2435 29.5074 23.3846 29.1819 22.6398L28.4489 22.9601C28.6552 23.4324 28.5863 23.9646 28.2446 24.3667L28.8543 24.8847ZM26.9021 27.1474L28.8523 24.887L28.2466 24.3644L26.2964 26.6248L26.9021 27.1474ZM35.3403 33.7285C33.7693 33.1294 29.4504 31.2604 26.9501 26.694L26.2484 27.0783C28.8895 31.9016 33.4351 33.8581 35.0553 34.476L35.3403 33.7285ZM37.0113 31.1592L34.8838 33.8544L35.5118 34.3501L37.6392 31.6549L37.0113 31.1592ZM39.6125 30.5188C38.631 30.091 37.6525 30.4248 37.0241 31.1438L37.6264 31.6703C38.0617 31.1722 38.6788 30.9845 39.2929 31.2521L39.6125 30.5188ZM43.4956 36.0102C43.2519 37.0459 42.6016 37.9963 41.723 38.5446L42.1465 39.2233C43.2182 38.5545 43.9862 37.4181 44.2744 36.1934L43.4956 36.0102ZM43.8556 34.7728L43.501 35.9899L44.269 36.2137L44.6237 34.9966L43.8556 34.7728ZM38.4903 32.728L44.075 35.2493L44.4042 34.5202L38.8195 31.9989L38.4903 32.728ZM36.8452 35.3885L38.9727 32.6064L38.3372 32.1205L36.2097 34.9026L36.8452 35.3885ZM34.7352 36.0523C35.5039 36.2678 36.2864 36.0469 36.8323 35.4046L36.2226 34.8865C35.882 35.2875 35.4233 35.4144 34.9511 35.282L34.7352 36.0523ZM24.6495 27.5939C27.6463 33.2943 33.0847 35.5132 34.7189 36.0474L34.9674 35.287C33.4104 34.778 28.2112 32.6497 25.3576 27.2216L24.6495 27.5939ZM24.8708 25.5031C24.4187 26.0574 24.3074 26.9228 24.6471 27.5894L25.3599 27.2261C25.1678 26.8493 25.2338 26.3238 25.4908 26.0087L24.8708 25.5031ZM27.0119 23.1399L24.8844 25.4872L25.4772 26.0245L27.6047 23.6771L27.0119 23.1399ZM24.5484 18.0913L26.9418 23.5686L27.6748 23.2483L25.2814 17.771L24.5484 18.0913ZM23.1029 18.1554L24.8758 18.3293L24.9539 17.5331L23.181 17.3592L23.1029 18.1554ZM22.7129 18.3037C22.7978 18.2203 22.9532 18.1573 23.142 18.1573V17.3573C22.7988 17.3573 22.4224 17.468 22.1527 17.7325L22.7129 18.3037ZM20.6067 21.4102C20.9311 19.9783 21.9961 18.9199 22.6933 18.3216L22.1723 17.7145C21.4511 18.3334 20.2112 19.5355 19.8265 21.2334L20.6067 21.4102ZM23.02 29.256C20.929 26.4362 20.1107 23.5992 20.6067 21.4102L19.8265 21.2334C19.2587 23.7392 20.2135 26.8143 22.3774 29.7325L23.02 29.256ZM36.8105 39.1067C28.7035 36.8838 24.4284 31.1554 23.02 29.256L22.3774 29.7325C23.8056 31.6586 28.2178 37.5802 36.5989 39.8782L36.8105 39.1067ZM41.7204 38.5462C40.327 39.4305 38.6742 39.6052 36.808 39.1061L36.6013 39.8789C38.6355 40.423 40.5285 40.2501 42.1491 39.2217L41.7204 38.5462Z" fill="#272525" mask="url(#path-1-outside-1_851_11)"/>
</svg>
