<svg width="40" height="40" viewBox="0 0 40 40" fill="none" xmlns="http://www.w3.org/2000/svg">
<mask id="path-1-outside-1_53_1452" maskUnits="userSpaceOnUse" x="0" y="0" width="40" height="40" fill="black">
<rect fill="white" width="40" height="40"/>
<path fill-rule="evenodd" clip-rule="evenodd" d="M1.25163 19.7484C1.25163 9.43045 9.68216 1 20.0629 1C30.5066 1 39 9.43045 39 19.7483C39 30.0661 30.3178 38.7483 20.0629 38.7483C17.1688 38.7483 14.086 37.8676 11.1291 36.2947L1 39L3.7682 29.0596C2.13244 26.1656 1.25163 23.0199 1.25163 19.7484ZM11.5066 35.0365C14.3377 36.6093 17.2947 37.4901 20.0629 37.4901C29.6259 37.4901 37.7417 29.3742 37.7417 19.7484C37.7417 10.1225 29.8145 2.25829 20.0629 2.25829C10.3741 2.25829 2.50991 10.1225 2.50991 19.7484C2.50991 22.8312 3.39065 25.914 4.96352 28.6193L5.08938 28.8709L2.76162 37.2384L11.255 34.9106L11.5066 35.0365ZM27.3009 20.7645L32.1241 22.9419C32.7366 23.2422 33.1193 23.918 32.9663 24.5938L32.7366 25.6451C32.4303 26.9967 31.5882 28.2731 30.3633 29.0239C29.2915 29.6245 28.0666 30 26.7651 30C26.0761 30 25.3104 29.9249 24.5449 29.6997C16.8892 27.5974 12.9082 22.2663 11.6067 20.4642C9.46306 17.611 8.621 14.6826 9.15686 12.2048C9.53967 10.4779 10.8412 9.20141 11.5302 8.60071C11.9895 8.1502 12.6785 8 13.291 8L14.7456 8.07506C15.3581 8.07506 15.8175 8.45051 16.0471 8.97607L18.1142 13.7815C18.3438 14.3071 18.2673 14.9078 17.8845 15.3583L16.2002 17.3105C18.4204 21.3652 22.2482 23.0171 23.6262 23.5426L25.4636 21.215C25.9229 20.6894 26.6119 20.4641 27.3009 20.7645ZM29.4445 27.6722C30.2867 27.1467 30.8991 26.2456 31.1288 25.2695L31.4351 24.2184L26.6119 22.0409L24.7746 24.4436C24.3918 24.8941 23.8558 25.0443 23.3199 24.8941C21.9419 24.4436 17.3484 22.5665 14.8221 17.761C14.5924 17.3104 14.669 16.7098 14.9752 16.3344L16.8126 14.3071L14.7456 9.57668L13.2144 9.42648C12.9847 9.42648 12.7551 9.50154 12.6019 9.65174C11.9894 10.1773 10.9941 11.1535 10.6879 12.505C10.2286 14.5322 10.9942 17.0852 12.8316 19.563C14.0565 21.2149 17.8078 26.2456 24.9276 28.1978C26.6118 28.6483 28.143 28.4982 29.4445 27.6722Z"/>
</mask>
<path fill-rule="evenodd" clip-rule="evenodd" d="M1.25163 19.7484C1.25163 9.43045 9.68216 1 20.0629 1C30.5066 1 39 9.43045 39 19.7483C39 30.0661 30.3178 38.7483 20.0629 38.7483C17.1688 38.7483 14.086 37.8676 11.1291 36.2947L1 39L3.7682 29.0596C2.13244 26.1656 1.25163 23.0199 1.25163 19.7484ZM11.5066 35.0365C14.3377 36.6093 17.2947 37.4901 20.0629 37.4901C29.6259 37.4901 37.7417 29.3742 37.7417 19.7484C37.7417 10.1225 29.8145 2.25829 20.0629 2.25829C10.3741 2.25829 2.50991 10.1225 2.50991 19.7484C2.50991 22.8312 3.39065 25.914 4.96352 28.6193L5.08938 28.8709L2.76162 37.2384L11.255 34.9106L11.5066 35.0365ZM27.3009 20.7645L32.1241 22.9419C32.7366 23.2422 33.1193 23.918 32.9663 24.5938L32.7366 25.6451C32.4303 26.9967 31.5882 28.2731 30.3633 29.0239C29.2915 29.6245 28.0666 30 26.7651 30C26.0761 30 25.3104 29.9249 24.5449 29.6997C16.8892 27.5974 12.9082 22.2663 11.6067 20.4642C9.46306 17.611 8.621 14.6826 9.15686 12.2048C9.53967 10.4779 10.8412 9.20141 11.5302 8.60071C11.9895 8.1502 12.6785 8 13.291 8L14.7456 8.07506C15.3581 8.07506 15.8175 8.45051 16.0471 8.97607L18.1142 13.7815C18.3438 14.3071 18.2673 14.9078 17.8845 15.3583L16.2002 17.3105C18.4204 21.3652 22.2482 23.0171 23.6262 23.5426L25.4636 21.215C25.9229 20.6894 26.6119 20.4641 27.3009 20.7645ZM29.4445 27.6722C30.2867 27.1467 30.8991 26.2456 31.1288 25.2695L31.4351 24.2184L26.6119 22.0409L24.7746 24.4436C24.3918 24.8941 23.8558 25.0443 23.3199 24.8941C21.9419 24.4436 17.3484 22.5665 14.8221 17.761C14.5924 17.3104 14.669 16.7098 14.9752 16.3344L16.8126 14.3071L14.7456 9.57668L13.2144 9.42648C12.9847 9.42648 12.7551 9.50154 12.6019 9.65174C11.9894 10.1773 10.9941 11.1535 10.6879 12.505C10.2286 14.5322 10.9942 17.0852 12.8316 19.563C14.0565 21.2149 17.8078 26.2456 24.9276 28.1978C26.6118 28.6483 28.143 28.4982 29.4445 27.6722Z" fill="white"/>
<path d="M11.1291 36.2947L11.317 35.9415L11.178 35.8676L11.0259 35.9082L11.1291 36.2947ZM1 39L0.614663 38.8927L0.426853 39.5671L1.10322 39.3865L1 39ZM3.7682 29.0596L4.15354 29.1669L4.19803 29.0072L4.11643 28.8628L3.7682 29.0596ZM11.5066 35.0365L11.7008 34.6868L11.6933 34.6826L11.6855 34.6787L11.5066 35.0365ZM4.96352 28.6193L5.32127 28.4403L5.31565 28.4291L5.30933 28.4182L4.96352 28.6193ZM5.08938 28.8709L5.47474 28.9781L5.51602 28.8297L5.44712 28.692L5.08938 28.8709ZM2.76162 37.2384L2.37625 37.1312L2.18726 37.8106L2.86734 37.6242L2.76162 37.2384ZM11.255 34.9106L11.4339 34.5529L11.2969 34.4844L11.1492 34.5249L11.255 34.9106ZM32.1241 22.9419L32.3003 22.5826L32.2887 22.5774L32.1241 22.9419ZM27.3009 20.7645L27.4656 20.3999L27.4608 20.3978L27.3009 20.7645ZM32.9663 24.5938L32.5761 24.5055L32.5755 24.5085L32.9663 24.5938ZM32.7366 25.6451L33.1267 25.7335L33.1274 25.7304L32.7366 25.6451ZM30.3633 29.0239L30.5588 29.3729L30.5656 29.3691L30.5723 29.365L30.3633 29.0239ZM24.5449 29.6997L24.6578 29.3159L24.6508 29.314L24.5449 29.6997ZM11.6067 20.4642L11.931 20.23L11.9265 20.224L11.6067 20.4642ZM9.15686 12.2048L8.76634 12.1183L8.7659 12.1203L9.15686 12.2048ZM11.5302 8.60071L11.793 8.90221L11.8019 8.8945L11.8103 8.88628L11.5302 8.60071ZM13.291 8L13.3116 7.60053L13.3013 7.6H13.291V8ZM14.7456 8.07506L14.725 8.47452L14.7353 8.47506H14.7456V8.07506ZM16.0471 8.97607L16.4146 8.81801L16.4137 8.81589L16.0471 8.97607ZM18.1142 13.7815L17.7467 13.9396L17.7476 13.9417L18.1142 13.7815ZM17.8845 15.3583L18.1874 15.6196L18.1893 15.6173L17.8845 15.3583ZM16.2002 17.3105L15.8973 17.0492L15.7161 17.2593L15.8493 17.5026L16.2002 17.3105ZM23.6262 23.5426L23.4837 23.9164L23.7582 24.0211L23.9402 23.7905L23.6262 23.5426ZM25.4636 21.215L25.1624 20.9517L25.1558 20.9593L25.1496 20.9671L25.4636 21.215ZM31.1288 25.2695L30.7448 25.1576L30.7418 25.1677L30.7394 25.1779L31.1288 25.2695ZM29.4445 27.6722L29.2327 27.3329L29.2302 27.3345L29.4445 27.6722ZM31.4351 24.2184L31.8191 24.3303L31.9163 23.9968L31.5997 23.8538L31.4351 24.2184ZM26.6119 22.0409L26.7765 21.6763L26.4871 21.5457L26.2942 21.7979L26.6119 22.0409ZM24.7746 24.4436L25.0794 24.7027L25.0861 24.6948L25.0923 24.6866L24.7746 24.4436ZM23.3199 24.8941L23.1957 25.2743L23.2038 25.277L23.212 25.2793L23.3199 24.8941ZM14.8221 17.761L14.4657 17.9427L14.468 17.9472L14.8221 17.761ZM14.9752 16.3344L14.6788 16.0657L14.6718 16.0735L14.6652 16.0816L14.9752 16.3344ZM16.8126 14.3071L17.109 14.5757L17.2827 14.384L17.1791 14.1469L16.8126 14.3071ZM14.7456 9.57668L15.1121 9.41652L15.0181 9.2015L14.7846 9.17859L14.7456 9.57668ZM13.2144 9.42648L13.2534 9.02839L13.234 9.02648H13.2144V9.42648ZM12.6019 9.65174L12.8624 9.9553L12.8725 9.94663L12.882 9.93731L12.6019 9.65174ZM10.6879 12.505L11.078 12.5934L11.078 12.5934L10.6879 12.505ZM12.8316 19.563L13.1529 19.3247L13.1529 19.3247L12.8316 19.563ZM24.9276 28.1978L24.8219 28.5836L24.8243 28.5842L24.9276 28.1978ZM20.0629 0.6C9.46212 0.6 0.851627 9.20867 0.851627 19.7484H1.65163C1.65163 9.65224 9.9022 1.4 20.0629 1.4V0.6ZM39.4 19.7483C39.4 9.20607 30.724 0.6 20.0629 0.6V1.4C30.2892 1.4 38.6 9.65484 38.6 19.7483H39.4ZM20.0629 39.1483C30.5396 39.1483 39.4 30.2862 39.4 19.7483H38.6C38.6 29.8461 30.0961 38.3483 20.0629 38.3483V39.1483ZM10.9413 36.6478C13.9426 38.2443 17.0897 39.1483 20.0629 39.1483V38.3483C17.248 38.3483 14.2295 37.4908 11.317 35.9415L10.9413 36.6478ZM1.10322 39.3865L11.2323 36.6811L11.0259 35.9082L0.896785 38.6135L1.10322 39.3865ZM3.38286 28.9523L0.614663 38.8927L1.38534 39.1073L4.15354 29.1669L3.38286 28.9523ZM0.851627 19.7484C0.851627 23.0938 1.75276 26.3068 3.41998 29.2565L4.11643 28.8628C2.51211 26.0244 1.65163 22.946 1.65163 19.7484H0.851627ZM20.0629 37.0901C17.3774 37.0901 14.487 36.2346 11.7008 34.6868L11.3123 35.3861C14.1885 36.984 17.2119 37.8901 20.0629 37.8901V37.0901ZM37.3417 19.7484C37.3417 29.1542 29.404 37.0901 20.0629 37.0901V37.8901C29.8477 37.8901 38.1417 29.5942 38.1417 19.7484H37.3417ZM20.0629 2.65829C29.5973 2.65829 37.3417 10.3472 37.3417 19.7484H38.1417C38.1417 9.89789 30.0317 1.85829 20.0629 1.85829V2.65829ZM2.90991 19.7484C2.90991 10.3444 10.5941 2.65829 20.0629 2.65829V1.85829C10.1542 1.85829 2.10991 9.90067 2.10991 19.7484H2.90991ZM5.30933 28.4182C3.76949 25.7697 2.90991 22.7558 2.90991 19.7484H2.10991C2.10991 22.9065 3.0118 26.0582 4.61772 28.8203L5.30933 28.4182ZM5.44712 28.692L5.32127 28.4403L4.60577 28.7982L4.73163 29.0498L5.44712 28.692ZM3.14698 37.3456L5.47474 28.9781L4.70401 28.7637L2.37625 37.1312L3.14698 37.3456ZM11.1492 34.5249L2.65589 36.8526L2.86734 37.6242L11.3607 35.2964L11.1492 34.5249ZM11.6855 34.6787L11.4339 34.5529L11.076 35.2684L11.3277 35.3942L11.6855 34.6787ZM32.2887 22.5774L27.4655 20.3999L27.1364 21.129L31.9595 23.3065L32.2887 22.5774ZM33.3564 24.6822C33.556 23.8008 33.0551 22.9529 32.3002 22.5828L31.948 23.3011C32.418 23.5315 32.6826 24.0351 32.5761 24.5055L33.3564 24.6822ZM33.1274 25.7304L33.357 24.6792L32.5755 24.5085L32.3458 25.5597L33.1274 25.7304ZM30.5723 29.365C31.8976 28.5526 32.7989 27.1802 33.1267 25.7335L32.3465 25.5567C32.0617 26.8131 31.2788 27.9936 30.1542 28.6829L30.5723 29.365ZM26.7651 30.4C28.1445 30.4 29.4361 30.002 30.5588 29.3729L30.1677 28.675C29.1468 29.2471 27.9886 29.6 26.7651 29.6V30.4ZM24.432 30.0834C25.2429 30.322 26.0482 30.4 26.7651 30.4V29.6C26.104 29.6 25.378 29.5279 24.6578 29.316L24.432 30.0834ZM11.2824 20.6984C12.5978 22.5197 16.647 27.9457 24.439 30.0854L24.6508 29.314C17.1313 27.2491 13.2186 22.0129 11.931 20.23L11.2824 20.6984ZM8.7659 12.1203C8.19744 14.7488 9.10025 17.794 11.2869 20.7045L11.9265 20.224C9.82587 17.428 9.04455 14.6165 9.54782 12.2894L8.7659 12.1203ZM11.2673 8.2992C10.5678 8.90907 9.17871 10.258 8.76634 12.1183L9.54738 12.2914C9.90064 10.6978 11.1145 9.49375 11.793 8.90221L11.2673 8.2992ZM13.291 7.6C12.6316 7.6 11.8172 7.75889 11.2501 8.31513L11.8103 8.88628C12.1618 8.54151 12.7255 8.4 13.291 8.4V7.6ZM14.7663 7.67559L13.3116 7.60053L13.2704 8.39947L14.725 8.47452L14.7663 7.67559ZM16.4137 8.81589C16.133 8.17361 15.5465 7.67506 14.7456 7.67506V8.47506C15.1698 8.47506 15.5019 8.7274 15.6806 9.13624L16.4137 8.81589ZM18.4816 13.6235L16.4146 8.81801L15.6797 9.13412L17.7467 13.9396L18.4816 13.6235ZM18.1893 15.6173C18.6737 15.0472 18.7699 14.2832 18.4807 13.6213L17.7476 13.9417C17.9177 14.331 17.8609 14.7683 17.5797 15.0993L18.1893 15.6173ZM16.503 17.5718L18.1874 15.6196L17.5816 15.097L15.8973 17.0492L16.503 17.5718ZM23.7688 23.1689C22.4153 22.6527 18.7008 21.0445 16.551 17.1184L15.8493 17.5026C18.1399 21.6858 22.0811 23.3815 23.4837 23.9164L23.7688 23.1689ZM25.1496 20.9671L23.3123 23.2948L23.9402 23.7905L25.7776 21.4628L25.1496 20.9671ZM27.4608 20.3978C26.5881 20.0174 25.7183 20.3157 25.1624 20.9517L25.7648 21.4782C26.1276 21.0631 26.6358 20.9109 27.1411 21.1311L27.4608 20.3978ZM30.7394 25.1779C30.532 26.0595 29.9783 26.8676 29.2327 27.3329L29.6563 28.0116C30.595 27.4258 31.2663 26.4317 31.5182 25.3611L30.7394 25.1779ZM31.0511 24.1065L30.7448 25.1576L31.5128 25.3814L31.8191 24.3303L31.0511 24.1065ZM26.4474 22.4055L31.2705 24.583L31.5997 23.8538L26.7765 21.6763L26.4474 22.4055ZM25.0923 24.6866L26.9297 22.2839L26.2942 21.7979L24.4568 24.2007L25.0923 24.6866ZM23.212 25.2793C23.8961 25.4711 24.594 25.2739 25.0794 24.7027L24.4698 24.1846C24.1895 24.5144 23.8155 24.6176 23.4279 24.509L23.212 25.2793ZM14.468 17.9472C17.066 22.8888 21.7791 24.8112 23.1957 25.2743L23.4442 24.514C22.1048 24.076 17.6309 22.2442 15.1761 17.5749L14.468 17.9472ZM14.6652 16.0816C14.2615 16.5766 14.1622 17.3472 14.4657 17.9427L15.1785 17.5794C15.0226 17.2736 15.0766 16.843 15.2852 16.5872L14.6652 16.0816ZM16.5162 14.0385L14.6788 16.0657L15.2716 16.603L17.109 14.5757L16.5162 14.0385ZM14.379 9.73684L16.446 14.4672L17.1791 14.1469L15.1121 9.41652L14.379 9.73684ZM13.1753 9.82457L14.7065 9.97477L14.7846 9.17859L13.2534 9.02839L13.1753 9.82457ZM12.882 9.93731C12.9428 9.87771 13.0619 9.82648 13.2144 9.82648V9.02648C12.9075 9.02648 12.5673 9.12536 12.3218 9.36616L12.882 9.93731ZM11.078 12.5934C11.3541 11.3748 12.2619 10.4705 12.8624 9.9553L12.3414 9.34817C11.7169 9.88405 10.6341 10.9321 10.2978 12.4166L11.078 12.5934ZM13.1529 19.3247C11.352 16.8961 10.6546 14.4622 11.078 12.5934L10.2978 12.4166C9.80259 14.6023 10.6364 17.2742 12.5103 19.8012L13.1529 19.3247ZM25.0334 27.812C18.0506 25.8974 14.3678 20.9632 13.1529 19.3247L12.5103 19.8012C13.7451 21.4665 17.5649 26.5938 24.8219 28.5836L25.0334 27.812ZM29.2302 27.3345C28.0422 28.0884 26.6312 28.2394 25.031 27.8114L24.8243 28.5842C26.5925 29.0572 28.2438 28.908 29.6588 28.01L29.2302 27.3345Z" fill="white" mask="url(#path-1-outside-1_53_1452)"/>
</svg>
