<svg width="35" height="35" viewBox="0 0 35 35" fill="none" xmlns="http://www.w3.org/2000/svg">
<circle cx="17.2308" cy="17.2308" r="16.2308" stroke="#272525" stroke-width="2"/>
<path d="M26.8034 13.4052C26.8034 13.4052 26.6069 11.9965 26.05 11.3741C25.3293 10.5552 24.5103 10.5552 24.15 10.5224C21.4966 10.3259 17.5 10.2931 17.5 10.2931C17.5 10.2931 13.5034 10.3259 10.85 10.5224C10.4897 10.5552 9.6707 10.5879 8.95 11.3741C8.36033 11.9966 8.19657 13.4052 8.19657 13.4052C8.19657 13.4052 8 15.0759 8 16.7466V18.2862C8 19.9569 8.19657 21.5949 8.19657 21.5949C8.19657 21.5949 8.39314 23.0035 8.95 23.6259C9.6707 24.4449 10.6207 24.4121 11.0466 24.5104C12.5534 24.6741 17.5 24.7069 17.5 24.7069C17.5 24.7069 21.4966 24.7069 24.15 24.4776C24.5103 24.4448 25.3293 24.4121 26.05 23.6259C26.6069 23.0035 26.8034 21.5948 26.8034 21.5948C26.8034 21.5948 27 19.9241 27 18.2862V16.7465C27 15.0759 26.8034 13.4052 26.8034 13.4052Z" fill="#ED143B"/>
<path d="M15.2069 14.1913V21.3L21.431 17.8276L15.2069 14.1913Z" fill="white"/>
</svg>
