<svg width="600" height="600" viewBox="0 0 600 600" fill="none" xmlns="http://www.w3.org/2000/svg">
<rect width="600" height="600" fill="white"/>
<path d="M300 544.919C434.205 544.919 543 435.471 543 300.459C543 165.448 434.205 56 300 56C165.795 56 57 165.448 57 300.459C57 435.471 165.795 544.919 300 544.919Z" fill="#2B2A29"/>
<path d="M443.188 306.536H413.145C399.684 307.386 388.952 318.181 388.109 331.722V338.726L352.624 329.911L363.891 295.857L446.06 281.25C447.545 281.016 448.838 280.105 449.567 278.782C450.312 277.457 450.422 275.866 449.866 274.449L429.838 224.076C429.077 222.159 427.233 220.9 425.181 220.902L336.551 228.421L263.622 228.733L174.819 220.902C172.768 220.9 170.923 222.159 170.163 224.076L150.134 274.449C149.578 275.866 149.688 277.457 150.434 278.782C151.163 280.104 152.456 281.016 153.94 281.25L236.11 295.857L247.376 329.911L211.786 338.726V331.722C210.943 318.181 200.211 307.386 186.75 306.536H156.707C143.246 307.386 132.514 318.181 131.671 331.722V432.469C132.514 446.013 143.246 456.807 156.707 457.655H186.75C200.211 456.807 210.943 446.012 211.786 432.469V385.018L259.943 367.791L265.2 383.708C265.907 385.746 267.809 387.12 269.957 387.134H330.044C332.192 387.12 334.095 385.746 334.802 383.708L340.059 367.791L388.111 385.018V432.469C388.954 446.013 399.686 456.807 413.147 457.655H443.19C456.651 456.807 467.383 446.012 468.226 432.469V331.722C467.383 318.181 456.651 307.386 443.19 306.536H443.188ZM146.69 326.685H166.718C169.484 326.685 171.726 328.942 171.726 331.722C171.726 334.504 169.484 336.76 166.718 336.76H146.69C143.924 336.76 141.683 334.504 141.683 331.722C141.683 328.942 143.924 326.685 146.69 326.685ZM146.69 366.984H166.718C169.484 366.984 171.726 369.241 171.726 372.021C171.726 374.803 169.484 377.058 166.718 377.058H146.69C143.924 377.058 141.683 374.803 141.683 372.021C141.683 369.241 143.924 366.984 146.69 366.984ZM166.718 417.357H146.69C143.924 417.357 141.683 415.102 141.683 412.32C141.683 409.539 143.924 407.283 146.69 407.283H166.718C169.484 407.283 171.726 409.539 171.726 412.32C171.726 415.102 169.484 417.357 166.718 417.357ZM196.762 437.506H176.733C173.967 437.506 171.726 435.251 171.726 432.469C171.726 429.688 173.967 427.432 176.733 427.432H196.762C199.527 427.432 201.769 429.688 201.769 432.469C201.769 435.251 199.527 437.506 196.762 437.506ZM196.762 397.208H176.733C173.967 397.208 171.726 394.953 171.726 392.171C171.726 389.39 173.967 387.134 176.733 387.134H196.762C199.527 387.134 201.769 389.39 201.769 392.171C201.769 394.953 199.527 397.208 196.762 397.208ZM196.762 356.909H176.733C173.967 356.909 171.726 354.654 171.726 351.872C171.726 349.092 173.967 346.835 176.733 346.835H196.762C199.527 346.835 201.769 349.092 201.769 351.872C201.769 354.654 199.527 356.909 196.762 356.909ZM341.396 249.996C341.396 247.215 343.638 244.959 346.403 244.959L410.158 241.051C412.305 241.067 414.209 242.438 414.915 244.478L419.922 259.59C420.38 260.999 420.216 262.538 419.471 263.821C418.698 265.082 417.419 265.946 415.968 266.188L355.881 276.262C355.615 276.306 355.349 276.319 355.079 276.311C352.313 276.311 350.072 274.056 350.072 271.274L341.396 249.994V249.996ZM244.919 276.313C244.649 276.32 244.383 276.306 244.117 276.264L184.03 266.189C182.579 265.947 181.3 265.083 180.528 263.822C179.783 262.539 179.618 261 180.076 259.592L185.083 244.48C185.789 242.44 187.692 241.068 189.84 241.053L254.376 246.76C257.141 246.76 259.383 249.016 259.383 251.797L249.927 271.276C249.927 274.058 247.686 276.313 244.92 276.313L244.919 276.313ZM211.784 373.383V349.96L250.576 339.531L256.686 358.02L211.783 373.384L211.784 373.383ZM320.028 346.835H279.97C277.205 346.835 274.963 344.58 274.963 341.798C274.963 339.017 277.205 336.76 279.97 336.76H320.028C322.793 336.76 325.035 339.017 325.035 341.798C325.035 344.58 322.793 346.835 320.028 346.835ZM325.035 321.649H274.962C272.197 321.649 269.955 319.393 269.955 316.611C269.955 313.831 272.197 311.574 274.962 311.574H325.035C327.8 311.574 330.042 313.831 330.042 316.611C330.042 319.393 327.8 321.649 325.035 321.649ZM335.049 296.462H264.948C262.183 296.462 259.941 294.207 259.941 291.425C259.941 288.645 262.183 286.388 264.948 286.388H335.049C337.815 286.388 340.057 288.645 340.057 291.425C340.057 294.207 337.815 296.462 335.049 296.462ZM388.109 373.384L343.312 358.02L349.422 339.531L388.109 349.96V373.383V373.384ZM403.13 346.836H423.159C425.924 346.836 428.166 349.092 428.166 351.873C428.166 354.655 425.924 356.91 423.159 356.91H403.13C400.365 356.91 398.123 354.655 398.123 351.873C398.123 349.092 400.365 346.836 403.13 346.836ZM403.13 387.134H423.159C425.924 387.134 428.166 389.391 428.166 392.172C428.166 394.954 425.924 397.209 423.159 397.209H403.13C400.365 397.209 398.123 394.954 398.123 392.172C398.123 389.391 400.365 387.134 403.13 387.134ZM423.159 437.508H403.13C400.365 437.508 398.123 435.253 398.123 432.471C398.123 429.69 400.365 427.433 403.13 427.433H423.159C425.924 427.433 428.166 429.69 428.166 432.471C428.166 435.253 425.924 437.508 423.159 437.508ZM453.202 417.359H433.173C430.408 417.359 428.166 415.104 428.166 412.321C428.166 409.541 430.408 407.284 433.173 407.284H453.202C455.967 407.284 458.209 409.541 458.209 412.321C458.209 415.104 455.967 417.359 453.202 417.359ZM453.202 377.06H433.173C430.408 377.06 428.166 374.805 428.166 372.023C428.166 369.242 430.408 366.985 433.173 366.985H453.202C455.967 366.985 458.209 369.242 458.209 372.023C458.209 374.805 455.967 377.06 453.202 377.06ZM453.202 336.762H433.173C430.408 336.762 428.166 334.507 428.166 331.725C428.166 328.944 430.408 326.687 433.173 326.687H453.202C455.967 326.687 458.209 328.944 458.209 331.725C458.209 334.507 455.967 336.762 453.202 336.762Z" fill="#FEFEFE"/>
<path fill-rule="evenodd" clip-rule="evenodd" d="M191.969 215.604L226.136 143.081C227.074 141.09 229.543 139.616 231.733 139.616H367.177C370.378 139.616 372.829 141.402 373.967 143.818L407.788 215.604L390.127 217.291L362.822 159.53C361.507 156.746 359.355 155.274 355.973 155.891L337.933 159.186H261.687L242.887 155.883C239.894 155.357 237.727 157.435 236.698 159.622L209.675 217.086L191.97 215.604L191.969 215.604Z" fill="#FEFEFE"/>
<path fill-rule="evenodd" clip-rule="evenodd" d="M295.604 215.603C295.038 209.439 292.34 204.079 288.521 200.726C286.329 198.802 282.525 195.981 281.647 193.497L277.36 181.368C274.682 173.792 270.061 173.457 266.742 173.457H261.688V221.21L227.771 218.501C227.771 211.43 231.035 204.079 234.854 200.726C237.046 198.802 240.849 195.981 241.727 193.497L246.015 181.367C248.693 173.791 253.314 173.456 256.633 173.456H261.687V221.209L296.091 220.901L295.605 215.602L295.604 215.603ZM247.192 203.327C247.937 203.624 255.624 205.116 256.507 202.76L259.365 195.138C260.156 193.028 258.446 191.469 256.944 191.469H253.625C252.553 191.469 251.175 192.45 250.693 193.198L247.867 197.575C246.271 200.048 243.57 201.877 247.193 203.327H247.192ZM276.689 203.327C275.944 203.624 268.257 205.116 267.374 202.76L264.516 195.138C263.725 193.028 265.435 191.469 266.937 191.469H270.256C271.328 191.469 272.706 192.45 273.188 193.198L276.014 197.575C277.61 200.048 280.311 201.877 276.688 203.327H276.689Z" fill="#FEFEFE"/>
<path fill-rule="evenodd" clip-rule="evenodd" d="M304.153 215.603C304.719 209.439 307.417 204.079 311.237 200.726C313.428 198.802 317.232 195.981 318.11 193.497L322.397 181.368C325.075 173.792 329.696 173.457 333.015 173.457H338.069V221.21L371.986 218.501C371.986 211.43 368.722 204.079 364.903 200.726C362.712 198.802 358.908 195.981 358.03 193.497L353.742 181.367C351.064 173.791 346.443 173.456 343.125 173.456H338.07V221.209L303.666 220.901L304.153 215.602L304.153 215.603ZM352.565 203.327C351.82 203.624 344.133 205.116 343.25 202.76L340.393 195.138C339.601 193.028 341.311 191.469 342.813 191.469H346.132C347.204 191.469 348.582 192.45 349.064 193.198L351.89 197.575C353.486 200.048 356.187 201.877 352.564 203.327H352.565ZM323.068 203.327C323.813 203.624 331.5 205.116 332.383 202.76L335.241 195.138C336.032 193.028 334.323 191.469 332.821 191.469H329.501C328.429 191.469 327.052 192.45 326.569 193.198L323.743 197.575C322.147 200.048 319.446 201.877 323.069 203.327H323.068Z" fill="#FEFEFE"/>
<path d="M299.999 80.4263C360.396 80.4263 415.076 105.055 454.657 144.873C494.237 184.691 518.719 239.7 518.719 300.46C518.719 342.035 507.254 380.916 487.336 414.082V394.36C501.363 366.091 509.256 334.202 509.256 300.46C509.256 242.327 485.834 189.699 447.967 151.604C410.099 113.509 357.784 89.9464 300 89.9464C242.215 89.9464 189.9 113.509 152.033 151.604C114.166 189.699 90.7435 242.328 90.7435 300.46C90.7435 335.022 99.0239 367.639 113.696 396.412V415.779C93.1425 382.246 81.281 342.747 81.281 300.46C81.281 239.7 105.763 184.691 145.343 144.873C184.924 105.055 239.604 80.4263 300.001 80.4263H299.999ZM434.602 473.899C397.488 503.091 350.763 520.492 299.999 520.492C249.236 520.492 202.512 503.091 165.397 473.899H181.372C215.086 497.28 255.953 510.973 300 510.973C344.047 510.973 384.914 497.28 418.628 473.899H434.603H434.602Z" fill="#FEFEFE"/>
</svg>
